G04 #@! TF.GenerationSoftware,KiCad,Pcbnew,(5.1.0)-1*
G04 #@! TF.CreationDate,2020-05-22T07:58:56-04:00*
G04 #@! TF.ProjectId,SiPMV4-30050,5369504d-5634-42d3-9330-3035302e6b69,rev?*
G04 #@! TF.SameCoordinates,Original*
G04 #@! TF.FileFunction,Legend,Bot*
G04 #@! TF.FilePolarity,Positive*
%FSLAX46Y46*%
G04 Gerber Fmt 4.6, Leading zero omitted, Abs format (unit mm)*
G04 Created by KiCad (PCBNEW (5.1.0)-1) date 2020-05-22 07:58:56*
%MOMM*%
%LPD*%
G04 APERTURE LIST*
%ADD10C,0.150000*%
%ADD11C,0.120000*%
G04 APERTURE END LIST*
D10*
X151606095Y-54157619D02*
X151558476Y-54110000D01*
X151463238Y-54062380D01*
X151225142Y-54062380D01*
X151129904Y-54110000D01*
X151082285Y-54157619D01*
X151034666Y-54252857D01*
X151034666Y-54348095D01*
X151082285Y-54490952D01*
X151653714Y-55062380D01*
X151034666Y-55062380D01*
X150272761Y-54538571D02*
X150606095Y-54538571D01*
X150606095Y-55062380D02*
X150606095Y-54062380D01*
X150129904Y-54062380D01*
X149558476Y-54062380D02*
X149368000Y-54062380D01*
X149272761Y-54110000D01*
X149177523Y-54205238D01*
X149129904Y-54395714D01*
X149129904Y-54729047D01*
X149177523Y-54919523D01*
X149272761Y-55014761D01*
X149368000Y-55062380D01*
X149558476Y-55062380D01*
X149653714Y-55014761D01*
X149748952Y-54919523D01*
X149796571Y-54729047D01*
X149796571Y-54395714D01*
X149748952Y-54205238D01*
X149653714Y-54110000D01*
X149558476Y-54062380D01*
X161615333Y-60872714D02*
X161615333Y-61539380D01*
X161853428Y-60491761D02*
X162091523Y-61206047D01*
X161472476Y-61206047D01*
X161091523Y-61539380D02*
X161091523Y-60539380D01*
X160520095Y-61539380D01*
X160520095Y-60539380D01*
X159472476Y-61444142D02*
X159520095Y-61491761D01*
X159662952Y-61539380D01*
X159758190Y-61539380D01*
X159901047Y-61491761D01*
X159996285Y-61396523D01*
X160043904Y-61301285D01*
X160091523Y-61110809D01*
X160091523Y-60967952D01*
X160043904Y-60777476D01*
X159996285Y-60682238D01*
X159901047Y-60587000D01*
X159758190Y-60539380D01*
X159662952Y-60539380D01*
X159520095Y-60587000D01*
X159472476Y-60634619D01*
X161464428Y-52284380D02*
X160845380Y-52284380D01*
X161178714Y-52665333D01*
X161035857Y-52665333D01*
X160940619Y-52712952D01*
X160893000Y-52760571D01*
X160845380Y-52855809D01*
X160845380Y-53093904D01*
X160893000Y-53189142D01*
X160940619Y-53236761D01*
X161035857Y-53284380D01*
X161321571Y-53284380D01*
X161416809Y-53236761D01*
X161464428Y-53189142D01*
X159845380Y-53189142D02*
X159893000Y-53236761D01*
X160035857Y-53284380D01*
X160131095Y-53284380D01*
X160273952Y-53236761D01*
X160369190Y-53141523D01*
X160416809Y-53046285D01*
X160464428Y-52855809D01*
X160464428Y-52712952D01*
X160416809Y-52522476D01*
X160369190Y-52427238D01*
X160273952Y-52332000D01*
X160131095Y-52284380D01*
X160035857Y-52284380D01*
X159893000Y-52332000D01*
X159845380Y-52379619D01*
X158988238Y-53284380D02*
X158988238Y-52760571D01*
X159035857Y-52665333D01*
X159131095Y-52617714D01*
X159321571Y-52617714D01*
X159416809Y-52665333D01*
X158988238Y-53236761D02*
X159083476Y-53284380D01*
X159321571Y-53284380D01*
X159416809Y-53236761D01*
X159464428Y-53141523D01*
X159464428Y-53046285D01*
X159416809Y-52951047D01*
X159321571Y-52903428D01*
X159083476Y-52903428D01*
X158988238Y-52855809D01*
X158654904Y-52617714D02*
X158273952Y-52617714D01*
X158512047Y-52284380D02*
X158512047Y-53141523D01*
X158464428Y-53236761D01*
X158369190Y-53284380D01*
X158273952Y-53284380D01*
X156297238Y-32710380D02*
X156868666Y-32710380D01*
X156582952Y-32710380D02*
X156582952Y-31710380D01*
X156678190Y-31853238D01*
X156773428Y-31948476D01*
X156868666Y-31996095D01*
X155916285Y-32424666D02*
X155440095Y-32424666D01*
X156011523Y-32710380D02*
X155678190Y-31710380D01*
X155344857Y-32710380D01*
X155011523Y-32043714D02*
X155011523Y-32710380D01*
X155011523Y-32138952D02*
X154963904Y-32091333D01*
X154868666Y-32043714D01*
X154725809Y-32043714D01*
X154630571Y-32091333D01*
X154582952Y-32186571D01*
X154582952Y-32710380D01*
D11*
X155618540Y-57940220D02*
X155908540Y-57940220D01*
X155618540Y-57940220D02*
X155618540Y-57650220D01*
X148896000Y-61460748D02*
X148896000Y-61983252D01*
X150316000Y-61460748D02*
X150316000Y-61983252D01*
D10*
X143626635Y-65322600D02*
X143626635Y-64322600D01*
X143388540Y-64322600D01*
X143245682Y-64370220D01*
X143150444Y-64465458D01*
X143102825Y-64560696D01*
X143055206Y-64751172D01*
X143055206Y-64894029D01*
X143102825Y-65084505D01*
X143150444Y-65179743D01*
X143245682Y-65274981D01*
X143388540Y-65322600D01*
X143626635Y-65322600D01*
X142102825Y-65322600D02*
X142674254Y-65322600D01*
X142388540Y-65322600D02*
X142388540Y-64322600D01*
X142483778Y-64465458D01*
X142579016Y-64560696D01*
X142674254Y-64608315D01*
X155030920Y-60890220D02*
X155030920Y-60318791D01*
X155030920Y-60604505D02*
X154030920Y-60604505D01*
X154173778Y-60509267D01*
X154269016Y-60414029D01*
X154316635Y-60318791D01*
X155411873Y-62366410D02*
X155364254Y-62318791D01*
X155221397Y-62223553D01*
X155126159Y-62175934D01*
X154983301Y-62128315D01*
X154745206Y-62080696D01*
X154554730Y-62080696D01*
X154316635Y-62128315D01*
X154173778Y-62175934D01*
X154078540Y-62223553D01*
X153935682Y-62318791D01*
X153888063Y-62366410D01*
X155030920Y-63175934D02*
X154507111Y-63175934D01*
X154411873Y-63128315D01*
X154364254Y-63033077D01*
X154364254Y-62842600D01*
X154411873Y-62747362D01*
X154983301Y-63175934D02*
X155030920Y-63080696D01*
X155030920Y-62842600D01*
X154983301Y-62747362D01*
X154888063Y-62699743D01*
X154792825Y-62699743D01*
X154697587Y-62747362D01*
X154649968Y-62842600D01*
X154649968Y-63080696D01*
X154602349Y-63175934D01*
X154364254Y-63652124D02*
X155030920Y-63652124D01*
X154459492Y-63652124D02*
X154411873Y-63699743D01*
X154364254Y-63794981D01*
X154364254Y-63937839D01*
X154411873Y-64033077D01*
X154507111Y-64080696D01*
X155030920Y-64080696D01*
X155030920Y-64699743D02*
X154983301Y-64604505D01*
X154935682Y-64556886D01*
X154840444Y-64509267D01*
X154554730Y-64509267D01*
X154459492Y-64556886D01*
X154411873Y-64604505D01*
X154364254Y-64699743D01*
X154364254Y-64842600D01*
X154411873Y-64937839D01*
X154459492Y-64985458D01*
X154554730Y-65033077D01*
X154840444Y-65033077D01*
X154935682Y-64985458D01*
X154983301Y-64937839D01*
X155030920Y-64842600D01*
X155030920Y-64699743D01*
X155030920Y-65890220D02*
X154030920Y-65890220D01*
X154983301Y-65890220D02*
X155030920Y-65794981D01*
X155030920Y-65604505D01*
X154983301Y-65509267D01*
X154935682Y-65461648D01*
X154840444Y-65414029D01*
X154554730Y-65414029D01*
X154459492Y-65461648D01*
X154411873Y-65509267D01*
X154364254Y-65604505D01*
X154364254Y-65794981D01*
X154411873Y-65890220D01*
X154983301Y-66747362D02*
X155030920Y-66652124D01*
X155030920Y-66461648D01*
X154983301Y-66366410D01*
X154888063Y-66318791D01*
X154507111Y-66318791D01*
X154411873Y-66366410D01*
X154364254Y-66461648D01*
X154364254Y-66652124D01*
X154411873Y-66747362D01*
X154507111Y-66794981D01*
X154602349Y-66794981D01*
X154697587Y-66318791D01*
X155411873Y-67128315D02*
X155364254Y-67175934D01*
X155221397Y-67271172D01*
X155126159Y-67318791D01*
X154983301Y-67366410D01*
X154745206Y-67414029D01*
X154554730Y-67414029D01*
X154316635Y-67366410D01*
X154173778Y-67318791D01*
X154078540Y-67271172D01*
X153935682Y-67175934D01*
X153888063Y-67128315D01*
X149899666Y-64991142D02*
X149947285Y-65038761D01*
X150090142Y-65086380D01*
X150185380Y-65086380D01*
X150328238Y-65038761D01*
X150423476Y-64943523D01*
X150471095Y-64848285D01*
X150518714Y-64657809D01*
X150518714Y-64514952D01*
X150471095Y-64324476D01*
X150423476Y-64229238D01*
X150328238Y-64134000D01*
X150185380Y-64086380D01*
X150090142Y-64086380D01*
X149947285Y-64134000D01*
X149899666Y-64181619D01*
X148947285Y-65086380D02*
X149518714Y-65086380D01*
X149233000Y-65086380D02*
X149233000Y-64086380D01*
X149328238Y-64229238D01*
X149423476Y-64324476D01*
X149518714Y-64372095D01*
M02*
