G04 #@! TF.GenerationSoftware,KiCad,Pcbnew,(5.1.0)-1*
G04 #@! TF.CreationDate,2020-05-22T07:58:56-04:00*
G04 #@! TF.ProjectId,SiPMV4-30050,5369504d-5634-42d3-9330-3035302e6b69,rev?*
G04 #@! TF.SameCoordinates,Original*
G04 #@! TF.FileFunction,Legend,Top*
G04 #@! TF.FilePolarity,Positive*
%FSLAX46Y46*%
G04 Gerber Fmt 4.6, Leading zero omitted, Abs format (unit mm)*
G04 Created by KiCad (PCBNEW (5.1.0)-1) date 2020-05-22 07:58:56*
%MOMM*%
%LPD*%
G04 APERTURE LIST*
%ADD10C,0.200000*%
%ADD11C,0.300000*%
%ADD12C,0.120000*%
%ADD13C,0.150000*%
G04 APERTURE END LIST*
D10*
X173042105Y-20074828D02*
X173804010Y-20074828D01*
X173423058Y-20455780D02*
X173423058Y-19693876D01*
X174708772Y-19455780D02*
X174518296Y-19455780D01*
X174423058Y-19503400D01*
X174375439Y-19551019D01*
X174280200Y-19693876D01*
X174232581Y-19884352D01*
X174232581Y-20265304D01*
X174280200Y-20360542D01*
X174327820Y-20408161D01*
X174423058Y-20455780D01*
X174613534Y-20455780D01*
X174708772Y-20408161D01*
X174756391Y-20360542D01*
X174804010Y-20265304D01*
X174804010Y-20027209D01*
X174756391Y-19931971D01*
X174708772Y-19884352D01*
X174613534Y-19836733D01*
X174423058Y-19836733D01*
X174327820Y-19884352D01*
X174280200Y-19931971D01*
X174232581Y-20027209D01*
X175089724Y-19455780D02*
X175423058Y-20455780D01*
X175756391Y-19455780D01*
X173327820Y-21774828D02*
X174089724Y-21774828D01*
X174565915Y-21489114D02*
X175327820Y-21774828D01*
X174565915Y-22060542D01*
D11*
X154475322Y-28180600D02*
X154332465Y-28109171D01*
X154118180Y-28109171D01*
X153903894Y-28180600D01*
X153761037Y-28323457D01*
X153689608Y-28466314D01*
X153618180Y-28752028D01*
X153618180Y-28966314D01*
X153689608Y-29252028D01*
X153761037Y-29394885D01*
X153903894Y-29537742D01*
X154118180Y-29609171D01*
X154261037Y-29609171D01*
X154475322Y-29537742D01*
X154546751Y-29466314D01*
X154546751Y-28966314D01*
X154261037Y-28966314D01*
X155189608Y-29609171D02*
X155189608Y-28109171D01*
X156046751Y-29609171D01*
X156046751Y-28109171D01*
X156761037Y-29609171D02*
X156761037Y-28109171D01*
X157118180Y-28109171D01*
X157332465Y-28180600D01*
X157475322Y-28323457D01*
X157546751Y-28466314D01*
X157618180Y-28752028D01*
X157618180Y-28966314D01*
X157546751Y-29252028D01*
X157475322Y-29394885D01*
X157332465Y-29537742D01*
X157118180Y-29609171D01*
X156761037Y-29609171D01*
D10*
X166217459Y-65470066D02*
X166693649Y-65470066D01*
X166122220Y-65755780D02*
X166455554Y-64755780D01*
X166788887Y-65755780D01*
X167122220Y-65755780D02*
X167122220Y-65089114D01*
X167122220Y-65184352D02*
X167169840Y-65136733D01*
X167265078Y-65089114D01*
X167407935Y-65089114D01*
X167503173Y-65136733D01*
X167550792Y-65231971D01*
X167550792Y-65755780D01*
X167550792Y-65231971D02*
X167598411Y-65136733D01*
X167693649Y-65089114D01*
X167836506Y-65089114D01*
X167931744Y-65136733D01*
X167979363Y-65231971D01*
X167979363Y-65755780D01*
X168455554Y-65089114D02*
X168455554Y-66089114D01*
X168455554Y-65136733D02*
X168550792Y-65089114D01*
X168741268Y-65089114D01*
X168836506Y-65136733D01*
X168884125Y-65184352D01*
X168931744Y-65279590D01*
X168931744Y-65565304D01*
X168884125Y-65660542D01*
X168836506Y-65708161D01*
X168741268Y-65755780D01*
X168550792Y-65755780D01*
X168455554Y-65708161D01*
X170312697Y-64755780D02*
X170503173Y-64755780D01*
X170598411Y-64803400D01*
X170693649Y-64898638D01*
X170741268Y-65089114D01*
X170741268Y-65422447D01*
X170693649Y-65612923D01*
X170598411Y-65708161D01*
X170503173Y-65755780D01*
X170312697Y-65755780D01*
X170217459Y-65708161D01*
X170122220Y-65612923D01*
X170074601Y-65422447D01*
X170074601Y-65089114D01*
X170122220Y-64898638D01*
X170217459Y-64803400D01*
X170312697Y-64755780D01*
X171026982Y-65089114D02*
X171407935Y-65089114D01*
X171169840Y-65755780D02*
X171169840Y-64898638D01*
X171217459Y-64803400D01*
X171312697Y-64755780D01*
X171407935Y-64755780D01*
X171598411Y-65089114D02*
X171979363Y-65089114D01*
X171741268Y-65755780D02*
X171741268Y-64898638D01*
X171788887Y-64803400D01*
X171884125Y-64755780D01*
X171979363Y-64755780D01*
X172265078Y-65708161D02*
X172360316Y-65755780D01*
X172550792Y-65755780D01*
X172646030Y-65708161D01*
X172693649Y-65612923D01*
X172693649Y-65565304D01*
X172646030Y-65470066D01*
X172550792Y-65422447D01*
X172407935Y-65422447D01*
X172312697Y-65374828D01*
X172265078Y-65279590D01*
X172265078Y-65231971D01*
X172312697Y-65136733D01*
X172407935Y-65089114D01*
X172550792Y-65089114D01*
X172646030Y-65136733D01*
X173503173Y-65708161D02*
X173407935Y-65755780D01*
X173217459Y-65755780D01*
X173122220Y-65708161D01*
X173074601Y-65612923D01*
X173074601Y-65231971D01*
X173122220Y-65136733D01*
X173217459Y-65089114D01*
X173407935Y-65089114D01*
X173503173Y-65136733D01*
X173550792Y-65231971D01*
X173550792Y-65327209D01*
X173074601Y-65422447D01*
X173836506Y-65089114D02*
X174217459Y-65089114D01*
X173979363Y-64755780D02*
X173979363Y-65612923D01*
X174026982Y-65708161D01*
X174122220Y-65755780D01*
X174217459Y-65755780D01*
D11*
X188745002Y-20720620D02*
X188602145Y-20649191D01*
X188387860Y-20649191D01*
X188173574Y-20720620D01*
X188030717Y-20863477D01*
X187959288Y-21006334D01*
X187887860Y-21292048D01*
X187887860Y-21506334D01*
X187959288Y-21792048D01*
X188030717Y-21934905D01*
X188173574Y-22077762D01*
X188387860Y-22149191D01*
X188530717Y-22149191D01*
X188745002Y-22077762D01*
X188816431Y-22006334D01*
X188816431Y-21506334D01*
X188530717Y-21506334D01*
X189459288Y-22149191D02*
X189459288Y-20649191D01*
X190316431Y-22149191D01*
X190316431Y-20649191D01*
X191030717Y-22149191D02*
X191030717Y-20649191D01*
X191387860Y-20649191D01*
X191602145Y-20720620D01*
X191745002Y-20863477D01*
X191816431Y-21006334D01*
X191887860Y-21292048D01*
X191887860Y-21506334D01*
X191816431Y-21792048D01*
X191745002Y-21934905D01*
X191602145Y-22077762D01*
X191387860Y-22149191D01*
X191030717Y-22149191D01*
X158774571Y-29063142D02*
X159917428Y-29063142D01*
X161274571Y-28634571D02*
X161274571Y-29634571D01*
X160917428Y-28063142D02*
X160560285Y-29134571D01*
X161488857Y-29134571D01*
X162274571Y-28777428D02*
X162131714Y-28706000D01*
X162060285Y-28634571D01*
X161988857Y-28491714D01*
X161988857Y-28420285D01*
X162060285Y-28277428D01*
X162131714Y-28206000D01*
X162274571Y-28134571D01*
X162560285Y-28134571D01*
X162703142Y-28206000D01*
X162774571Y-28277428D01*
X162846000Y-28420285D01*
X162846000Y-28491714D01*
X162774571Y-28634571D01*
X162703142Y-28706000D01*
X162560285Y-28777428D01*
X162274571Y-28777428D01*
X162131714Y-28848857D01*
X162060285Y-28920285D01*
X161988857Y-29063142D01*
X161988857Y-29348857D01*
X162060285Y-29491714D01*
X162131714Y-29563142D01*
X162274571Y-29634571D01*
X162560285Y-29634571D01*
X162703142Y-29563142D01*
X162774571Y-29491714D01*
X162846000Y-29348857D01*
X162846000Y-29063142D01*
X162774571Y-28920285D01*
X162703142Y-28848857D01*
X162560285Y-28777428D01*
X163274571Y-28134571D02*
X163774571Y-29634571D01*
X164274571Y-28134571D01*
X167846000Y-28206000D02*
X167703142Y-28134571D01*
X167488857Y-28134571D01*
X167274571Y-28206000D01*
X167131714Y-28348857D01*
X167060285Y-28491714D01*
X166988857Y-28777428D01*
X166988857Y-28991714D01*
X167060285Y-29277428D01*
X167131714Y-29420285D01*
X167274571Y-29563142D01*
X167488857Y-29634571D01*
X167631714Y-29634571D01*
X167846000Y-29563142D01*
X167917428Y-29491714D01*
X167917428Y-28991714D01*
X167631714Y-28991714D01*
X168560285Y-29634571D02*
X168560285Y-28134571D01*
X169417428Y-29634571D01*
X169417428Y-28134571D01*
X170131714Y-29634571D02*
X170131714Y-28134571D01*
X170488857Y-28134571D01*
X170703142Y-28206000D01*
X170846000Y-28348857D01*
X170917428Y-28491714D01*
X170988857Y-28777428D01*
X170988857Y-28991714D01*
X170917428Y-29277428D01*
X170846000Y-29420285D01*
X170703142Y-29563142D01*
X170488857Y-29634571D01*
X170131714Y-29634571D01*
X142450180Y-23746922D02*
X143593037Y-23746922D01*
X144950180Y-22818351D02*
X144664465Y-22818351D01*
X144521608Y-22889780D01*
X144450180Y-22961208D01*
X144307322Y-23175494D01*
X144235894Y-23461208D01*
X144235894Y-24032637D01*
X144307322Y-24175494D01*
X144378751Y-24246922D01*
X144521608Y-24318351D01*
X144807322Y-24318351D01*
X144950180Y-24246922D01*
X145021608Y-24175494D01*
X145093037Y-24032637D01*
X145093037Y-23675494D01*
X145021608Y-23532637D01*
X144950180Y-23461208D01*
X144807322Y-23389780D01*
X144521608Y-23389780D01*
X144378751Y-23461208D01*
X144307322Y-23532637D01*
X144235894Y-23675494D01*
X145521608Y-22818351D02*
X146021608Y-24318351D01*
X146521608Y-22818351D01*
X149400357Y-43867331D02*
X149900357Y-45367331D01*
X150400357Y-43867331D01*
X151400357Y-44581617D02*
X151614642Y-44653045D01*
X151686071Y-44724474D01*
X151757500Y-44867331D01*
X151757500Y-45081617D01*
X151686071Y-45224474D01*
X151614642Y-45295902D01*
X151471785Y-45367331D01*
X150900357Y-45367331D01*
X150900357Y-43867331D01*
X151400357Y-43867331D01*
X151543214Y-43938760D01*
X151614642Y-44010188D01*
X151686071Y-44153045D01*
X151686071Y-44295902D01*
X151614642Y-44438760D01*
X151543214Y-44510188D01*
X151400357Y-44581617D01*
X150900357Y-44581617D01*
X152400357Y-45367331D02*
X152400357Y-44367331D01*
X152400357Y-43867331D02*
X152328928Y-43938760D01*
X152400357Y-44010188D01*
X152471785Y-43938760D01*
X152400357Y-43867331D01*
X152400357Y-44010188D01*
X153757500Y-45367331D02*
X153757500Y-44581617D01*
X153686071Y-44438760D01*
X153543214Y-44367331D01*
X153257500Y-44367331D01*
X153114642Y-44438760D01*
X153757500Y-45295902D02*
X153614642Y-45367331D01*
X153257500Y-45367331D01*
X153114642Y-45295902D01*
X153043214Y-45153045D01*
X153043214Y-45010188D01*
X153114642Y-44867331D01*
X153257500Y-44795902D01*
X153614642Y-44795902D01*
X153757500Y-44724474D01*
X154400357Y-45295902D02*
X154543214Y-45367331D01*
X154828928Y-45367331D01*
X154971785Y-45295902D01*
X155043214Y-45153045D01*
X155043214Y-45081617D01*
X154971785Y-44938760D01*
X154828928Y-44867331D01*
X154614642Y-44867331D01*
X154471785Y-44795902D01*
X154400357Y-44653045D01*
X154400357Y-44581617D01*
X154471785Y-44438760D01*
X154614642Y-44367331D01*
X154828928Y-44367331D01*
X154971785Y-44438760D01*
X156614642Y-43867331D02*
X157471785Y-43867331D01*
X157043214Y-45367331D02*
X157043214Y-43867331D01*
X157971785Y-45367331D02*
X157971785Y-44367331D01*
X157971785Y-44653045D02*
X158043214Y-44510188D01*
X158114642Y-44438760D01*
X158257500Y-44367331D01*
X158400357Y-44367331D01*
X158900357Y-45367331D02*
X158900357Y-44367331D01*
X158900357Y-43867331D02*
X158828928Y-43938760D01*
X158900357Y-44010188D01*
X158971785Y-43938760D01*
X158900357Y-43867331D01*
X158900357Y-44010188D01*
X159614642Y-45367331D02*
X159614642Y-44367331D01*
X159614642Y-44510188D02*
X159686071Y-44438760D01*
X159828928Y-44367331D01*
X160043214Y-44367331D01*
X160186071Y-44438760D01*
X160257500Y-44581617D01*
X160257500Y-45367331D01*
X160257500Y-44581617D02*
X160328928Y-44438760D01*
X160471785Y-44367331D01*
X160686071Y-44367331D01*
X160828928Y-44438760D01*
X160900357Y-44581617D01*
X160900357Y-45367331D01*
D12*
X193428620Y-45725700D02*
X193428620Y-60725700D01*
X193428620Y-60725700D02*
X178428620Y-60725700D01*
X178428620Y-60725700D02*
X178428620Y-45725700D01*
X178428620Y-45725700D02*
X193428620Y-45725700D01*
X193228620Y-53225700D02*
X192228620Y-52225700D01*
X193228620Y-53225700D02*
X192228620Y-54225700D01*
X162582944Y-56687040D02*
X161378816Y-56687040D01*
X162582944Y-58507040D02*
X161378816Y-58507040D01*
X139970000Y-53563500D02*
X139970000Y-49713500D01*
X141970000Y-53563500D02*
X141970000Y-49713500D01*
X139970000Y-53563500D02*
X141970000Y-53563500D01*
X145890064Y-43794000D02*
X144685936Y-43794000D01*
X145890064Y-45614000D02*
X144685936Y-45614000D01*
X157638600Y-63624460D02*
G75*
G03X157638600Y-63624460I-1200000J0D01*
G01*
X143617000Y-50865000D02*
X143617000Y-54315000D01*
X143617000Y-50865000D02*
X143617000Y-48915000D01*
X148737000Y-50865000D02*
X148737000Y-52815000D01*
X148737000Y-50865000D02*
X148737000Y-48915000D01*
X166054000Y-50018000D02*
X162604000Y-50018000D01*
X166054000Y-50018000D02*
X168004000Y-50018000D01*
X166054000Y-55138000D02*
X164104000Y-55138000D01*
X166054000Y-55138000D02*
X168004000Y-55138000D01*
X173348000Y-59294000D02*
X173348000Y-62348000D01*
X166758000Y-59294000D02*
X166758000Y-62348000D01*
X170888000Y-62348000D02*
X173348000Y-62348000D01*
X166758000Y-62348000D02*
X169218000Y-62348000D01*
X168348000Y-57788000D02*
X171758000Y-57788000D01*
X161800000Y-52100267D02*
X161800000Y-51757733D01*
X160780000Y-52100267D02*
X160780000Y-51757733D01*
X172281436Y-54123000D02*
X173485564Y-54123000D01*
X172281436Y-52303000D02*
X173485564Y-52303000D01*
X149816200Y-51551600D02*
X149816200Y-48497600D01*
X156406200Y-51551600D02*
X156406200Y-48497600D01*
X152276200Y-48497600D02*
X149816200Y-48497600D01*
X156406200Y-48497600D02*
X153946200Y-48497600D01*
X154816200Y-53057600D02*
X151406200Y-53057600D01*
X146981500Y-56765436D02*
X146981500Y-57969564D01*
X148801500Y-56765436D02*
X148801500Y-57969564D01*
X186990000Y-16182000D02*
X186490000Y-16182000D01*
X186990000Y-16922000D02*
X186990000Y-16182000D01*
X180297000Y-20059000D02*
X180344000Y-20013000D01*
X178000000Y-22357000D02*
X178035000Y-22321000D01*
X180104000Y-19843000D02*
X180139000Y-19808000D01*
X177795000Y-22151000D02*
X177842000Y-22105000D01*
X176470000Y-26343000D02*
X176470000Y-16422000D01*
X186750000Y-26343000D02*
X186750000Y-16422000D01*
X186750000Y-16422000D02*
X176470000Y-16422000D01*
X186750000Y-26343000D02*
X176470000Y-26343000D01*
X186750000Y-23383000D02*
X176470000Y-23383000D01*
X186750000Y-18482000D02*
X176470000Y-18482000D01*
X186750000Y-16982000D02*
X176470000Y-16982000D01*
X180750000Y-21082000D02*
G75*
G03X180750000Y-21082000I-1680000J0D01*
G01*
X184121195Y-19401747D02*
G75*
G02X184834000Y-19547000I28805J-1680253D01*
G01*
X185685426Y-20398958D02*
G75*
G02X185685000Y-21766000I-1535426J-683042D01*
G01*
X184833042Y-22617426D02*
G75*
G02X183466000Y-22617000I-683042J1535426D01*
G01*
X182614574Y-21765042D02*
G75*
G02X182615000Y-20398000I1535426J683042D01*
G01*
X183466682Y-19547244D02*
G75*
G02X184150000Y-19402000I683318J-1534756D01*
G01*
X171488380Y-16603640D02*
X170988380Y-16603640D01*
X171488380Y-17343640D02*
X171488380Y-16603640D01*
X164795380Y-20480640D02*
X164842380Y-20434640D01*
X162498380Y-22778640D02*
X162533380Y-22742640D01*
X164602380Y-20264640D02*
X164637380Y-20229640D01*
X162293380Y-22572640D02*
X162340380Y-22526640D01*
X160968380Y-26764640D02*
X160968380Y-16843640D01*
X171248380Y-26764640D02*
X171248380Y-16843640D01*
X171248380Y-16843640D02*
X160968380Y-16843640D01*
X171248380Y-26764640D02*
X160968380Y-26764640D01*
X171248380Y-23804640D02*
X160968380Y-23804640D01*
X171248380Y-18903640D02*
X160968380Y-18903640D01*
X171248380Y-17403640D02*
X160968380Y-17403640D01*
X165248380Y-21503640D02*
G75*
G03X165248380Y-21503640I-1680000J0D01*
G01*
X168619575Y-19823387D02*
G75*
G02X169332380Y-19968640I28805J-1680253D01*
G01*
X170183806Y-20820598D02*
G75*
G02X170183380Y-22187640I-1535426J-683042D01*
G01*
X169331422Y-23039066D02*
G75*
G02X167964380Y-23038640I-683042J1535426D01*
G01*
X167112954Y-22186682D02*
G75*
G02X167113380Y-20819640I1535426J683042D01*
G01*
X167965062Y-19968884D02*
G75*
G02X168648380Y-19823640I683318J-1534756D01*
G01*
X170504440Y-48740916D02*
X170504440Y-49945044D01*
X172324440Y-48740916D02*
X172324440Y-49945044D01*
X158875000Y-51757733D02*
X158875000Y-52100267D01*
X159895000Y-51757733D02*
X159895000Y-52100267D01*
X165703000Y-48575000D02*
X166203000Y-48575000D01*
X165953000Y-48825000D02*
X165953000Y-48325000D01*
X168708563Y-48085000D02*
X169773000Y-47020563D01*
X166317437Y-48085000D02*
X165253000Y-47020563D01*
X166317437Y-48085000D02*
X166453000Y-48085000D01*
X168708563Y-48085000D02*
X168573000Y-48085000D01*
X169773000Y-47020563D02*
X169773000Y-43565000D01*
X165253000Y-47020563D02*
X165253000Y-43565000D01*
X165253000Y-43565000D02*
X166453000Y-43565000D01*
X169773000Y-43565000D02*
X168573000Y-43565000D01*
X150474000Y-33368064D02*
X150474000Y-32163936D01*
X152294000Y-33368064D02*
X152294000Y-32163936D01*
X165813140Y-60111380D02*
X164613140Y-60111380D01*
X161293140Y-60111380D02*
X162493140Y-60111380D01*
X161293140Y-63566943D02*
X161293140Y-60111380D01*
X165813140Y-63566943D02*
X165813140Y-60111380D01*
X164748703Y-64631380D02*
X164613140Y-64631380D01*
X162357577Y-64631380D02*
X162493140Y-64631380D01*
X162357577Y-64631380D02*
X161293140Y-63566943D01*
X164748703Y-64631380D02*
X165813140Y-63566943D01*
X161993140Y-65371380D02*
X161993140Y-64871380D01*
X161743140Y-65121380D02*
X162243140Y-65121380D01*
X145690000Y-39246564D02*
X145690000Y-38042436D01*
X143870000Y-39246564D02*
X143870000Y-38042436D01*
X181758000Y-39058436D02*
X181758000Y-40262564D01*
X179938000Y-39058436D02*
X179938000Y-40262564D01*
X171048000Y-39021936D02*
X171048000Y-40226064D01*
X172868000Y-39021936D02*
X172868000Y-40226064D01*
X179848000Y-36236000D02*
X179848000Y-32386000D01*
X181848000Y-36236000D02*
X181848000Y-32386000D01*
X179848000Y-36236000D02*
X181848000Y-36236000D01*
X184896000Y-31966000D02*
X182896000Y-31966000D01*
X182896000Y-31966000D02*
X182896000Y-35816000D01*
X184896000Y-31966000D02*
X184896000Y-35816000D01*
X154508142Y-20065404D02*
G75*
G02X155191460Y-19920160I683318J-1534756D01*
G01*
X153656034Y-22283202D02*
G75*
G02X153656460Y-20916160I1535426J683042D01*
G01*
X155874502Y-23135586D02*
G75*
G02X154507460Y-23135160I-683042J1535426D01*
G01*
X156726886Y-20917118D02*
G75*
G02X156726460Y-22284160I-1535426J-683042D01*
G01*
X155162655Y-19919907D02*
G75*
G02X155875460Y-20065160I28805J-1680253D01*
G01*
X151791460Y-21600160D02*
G75*
G03X151791460Y-21600160I-1680000J0D01*
G01*
X157791460Y-17500160D02*
X147511460Y-17500160D01*
X157791460Y-19000160D02*
X147511460Y-19000160D01*
X157791460Y-23901160D02*
X147511460Y-23901160D01*
X157791460Y-26861160D02*
X147511460Y-26861160D01*
X157791460Y-16940160D02*
X147511460Y-16940160D01*
X157791460Y-26861160D02*
X157791460Y-16940160D01*
X147511460Y-26861160D02*
X147511460Y-16940160D01*
X148836460Y-22669160D02*
X148883460Y-22623160D01*
X151145460Y-20361160D02*
X151180460Y-20326160D01*
X149041460Y-22875160D02*
X149076460Y-22839160D01*
X151338460Y-20577160D02*
X151385460Y-20531160D01*
X158031460Y-17440160D02*
X158031460Y-16700160D01*
X158031460Y-16700160D02*
X157531460Y-16700160D01*
X151024000Y-39246564D02*
X151024000Y-38042436D01*
X149204000Y-39246564D02*
X149204000Y-38042436D01*
X148484000Y-38042436D02*
X148484000Y-39246564D01*
X146664000Y-38042436D02*
X146664000Y-39246564D01*
X173842000Y-38985436D02*
X173842000Y-40189564D01*
X175662000Y-38985436D02*
X175662000Y-40189564D01*
X178710000Y-39021936D02*
X178710000Y-40226064D01*
X176890000Y-39021936D02*
X176890000Y-40226064D01*
X178924000Y-30196000D02*
X177664000Y-30196000D01*
X172104000Y-30196000D02*
X173364000Y-30196000D01*
X178924000Y-33956000D02*
X178924000Y-30196000D01*
X172104000Y-36206000D02*
X172104000Y-30196000D01*
X175461747Y-55729600D02*
X175119213Y-55729600D01*
X175461747Y-54709600D02*
X175119213Y-54709600D01*
X149626000Y-31939000D02*
X149626000Y-29989000D01*
X149626000Y-31939000D02*
X149626000Y-33889000D01*
X144506000Y-31939000D02*
X144506000Y-29989000D01*
X144506000Y-31939000D02*
X144506000Y-35389000D01*
X146160000Y-56635436D02*
X146160000Y-57839564D01*
X144340000Y-56635436D02*
X144340000Y-57839564D01*
D13*
X185411786Y-43673780D02*
X185411786Y-44388066D01*
X185364167Y-44530923D01*
X185268929Y-44626161D01*
X185126072Y-44673780D01*
X185030834Y-44673780D01*
X185840358Y-43769019D02*
X185887977Y-43721400D01*
X185983215Y-43673780D01*
X186221310Y-43673780D01*
X186316548Y-43721400D01*
X186364167Y-43769019D01*
X186411786Y-43864257D01*
X186411786Y-43959495D01*
X186364167Y-44102352D01*
X185792739Y-44673780D01*
X186411786Y-44673780D01*
X138132915Y-60936020D02*
X138132915Y-59936020D01*
X138132915Y-60412211D02*
X138704343Y-60412211D01*
X138704343Y-60936020D02*
X138704343Y-59936020D01*
X139132915Y-60031259D02*
X139180534Y-59983640D01*
X139275772Y-59936020D01*
X139513867Y-59936020D01*
X139609105Y-59983640D01*
X139656724Y-60031259D01*
X139704343Y-60126497D01*
X139704343Y-60221735D01*
X139656724Y-60364592D01*
X139085296Y-60936020D01*
X139704343Y-60936020D01*
X158999522Y-57763706D02*
X159047141Y-57811325D01*
X159094760Y-57954182D01*
X159094760Y-58049420D01*
X159047141Y-58192278D01*
X158951903Y-58287516D01*
X158856665Y-58335135D01*
X158666189Y-58382754D01*
X158523332Y-58382754D01*
X158332856Y-58335135D01*
X158237618Y-58287516D01*
X158142380Y-58192278D01*
X158094760Y-58049420D01*
X158094760Y-57954182D01*
X158142380Y-57811325D01*
X158189999Y-57763706D01*
X158094760Y-57430373D02*
X158094760Y-56811325D01*
X158475713Y-57144659D01*
X158475713Y-57001801D01*
X158523332Y-56906563D01*
X158570951Y-56858944D01*
X158666189Y-56811325D01*
X158904284Y-56811325D01*
X158999522Y-56858944D01*
X159047141Y-56906563D01*
X159094760Y-57001801D01*
X159094760Y-57287516D01*
X159047141Y-57382754D01*
X158999522Y-57430373D01*
X137869704Y-51943260D02*
X137869704Y-50943260D01*
X138107800Y-50943260D01*
X138250657Y-50990880D01*
X138345895Y-51086118D01*
X138393514Y-51181356D01*
X138441133Y-51371832D01*
X138441133Y-51514689D01*
X138393514Y-51705165D01*
X138345895Y-51800403D01*
X138250657Y-51895641D01*
X138107800Y-51943260D01*
X137869704Y-51943260D01*
X138822085Y-51038499D02*
X138869704Y-50990880D01*
X138964942Y-50943260D01*
X139203038Y-50943260D01*
X139298276Y-50990880D01*
X139345895Y-51038499D01*
X139393514Y-51133737D01*
X139393514Y-51228975D01*
X139345895Y-51371832D01*
X138774466Y-51943260D01*
X139393514Y-51943260D01*
X140838893Y-45299902D02*
X140791274Y-45347521D01*
X140648417Y-45395140D01*
X140553179Y-45395140D01*
X140410321Y-45347521D01*
X140315083Y-45252283D01*
X140267464Y-45157045D01*
X140219845Y-44966569D01*
X140219845Y-44823712D01*
X140267464Y-44633236D01*
X140315083Y-44537998D01*
X140410321Y-44442760D01*
X140553179Y-44395140D01*
X140648417Y-44395140D01*
X140791274Y-44442760D01*
X140838893Y-44490379D01*
X141410321Y-44823712D02*
X141315083Y-44776093D01*
X141267464Y-44728474D01*
X141219845Y-44633236D01*
X141219845Y-44585617D01*
X141267464Y-44490379D01*
X141315083Y-44442760D01*
X141410321Y-44395140D01*
X141600798Y-44395140D01*
X141696036Y-44442760D01*
X141743655Y-44490379D01*
X141791274Y-44585617D01*
X141791274Y-44633236D01*
X141743655Y-44728474D01*
X141696036Y-44776093D01*
X141600798Y-44823712D01*
X141410321Y-44823712D01*
X141315083Y-44871331D01*
X141267464Y-44918950D01*
X141219845Y-45014188D01*
X141219845Y-45204664D01*
X141267464Y-45299902D01*
X141315083Y-45347521D01*
X141410321Y-45395140D01*
X141600798Y-45395140D01*
X141696036Y-45347521D01*
X141743655Y-45299902D01*
X141791274Y-45204664D01*
X141791274Y-45014188D01*
X141743655Y-44918950D01*
X141696036Y-44871331D01*
X141600798Y-44823712D01*
X154033838Y-61078840D02*
X154367171Y-62078840D01*
X154700504Y-61078840D01*
X155367171Y-61555031D02*
X155510028Y-61602650D01*
X155557647Y-61650269D01*
X155605266Y-61745507D01*
X155605266Y-61888364D01*
X155557647Y-61983602D01*
X155510028Y-62031221D01*
X155414790Y-62078840D01*
X155033838Y-62078840D01*
X155033838Y-61078840D01*
X155367171Y-61078840D01*
X155462409Y-61126460D01*
X155510028Y-61174079D01*
X155557647Y-61269317D01*
X155557647Y-61364555D01*
X155510028Y-61459793D01*
X155462409Y-61507412D01*
X155367171Y-61555031D01*
X155033838Y-61555031D01*
X156033838Y-62078840D02*
X156033838Y-61412174D01*
X156033838Y-61078840D02*
X155986219Y-61126460D01*
X156033838Y-61174079D01*
X156081457Y-61126460D01*
X156033838Y-61078840D01*
X156033838Y-61174079D01*
X156938600Y-62078840D02*
X156938600Y-61555031D01*
X156890980Y-61459793D01*
X156795742Y-61412174D01*
X156605266Y-61412174D01*
X156510028Y-61459793D01*
X156938600Y-62031221D02*
X156843361Y-62078840D01*
X156605266Y-62078840D01*
X156510028Y-62031221D01*
X156462409Y-61935983D01*
X156462409Y-61840745D01*
X156510028Y-61745507D01*
X156605266Y-61697888D01*
X156843361Y-61697888D01*
X156938600Y-61650269D01*
X157367171Y-62031221D02*
X157462409Y-62078840D01*
X157652885Y-62078840D01*
X157748123Y-62031221D01*
X157795742Y-61935983D01*
X157795742Y-61888364D01*
X157748123Y-61793126D01*
X157652885Y-61745507D01*
X157510028Y-61745507D01*
X157414790Y-61697888D01*
X157367171Y-61602650D01*
X157367171Y-61555031D01*
X157414790Y-61459793D01*
X157510028Y-61412174D01*
X157652885Y-61412174D01*
X157748123Y-61459793D01*
X158748123Y-62078840D02*
X158176695Y-62078840D01*
X158462409Y-62078840D02*
X158462409Y-61078840D01*
X158367171Y-61221698D01*
X158271933Y-61316936D01*
X158176695Y-61364555D01*
X138176095Y-17080380D02*
X138176095Y-16080380D01*
X138176095Y-16556571D02*
X138747523Y-16556571D01*
X138747523Y-17080380D02*
X138747523Y-16080380D01*
X139128476Y-16080380D02*
X139747523Y-16080380D01*
X139414190Y-16461333D01*
X139557047Y-16461333D01*
X139652285Y-16508952D01*
X139699904Y-16556571D01*
X139747523Y-16651809D01*
X139747523Y-16889904D01*
X139699904Y-16985142D01*
X139652285Y-17032761D01*
X139557047Y-17080380D01*
X139271333Y-17080380D01*
X139176095Y-17032761D01*
X139128476Y-16985142D01*
X188742415Y-61327180D02*
X188742415Y-60327180D01*
X188742415Y-60803371D02*
X189313843Y-60803371D01*
X189313843Y-61327180D02*
X189313843Y-60327180D01*
X189742415Y-60422419D02*
X189790034Y-60374800D01*
X189885272Y-60327180D01*
X190123367Y-60327180D01*
X190218605Y-60374800D01*
X190266224Y-60422419D01*
X190313843Y-60517657D01*
X190313843Y-60612895D01*
X190266224Y-60755752D01*
X189694796Y-61327180D01*
X190313843Y-61327180D01*
X188958315Y-26869540D02*
X188958315Y-25869540D01*
X188958315Y-26345731D02*
X189529743Y-26345731D01*
X189529743Y-26869540D02*
X189529743Y-25869540D01*
X190529743Y-26869540D02*
X189958315Y-26869540D01*
X190244029Y-26869540D02*
X190244029Y-25869540D01*
X190148791Y-26012398D01*
X190053553Y-26107636D01*
X189958315Y-26155255D01*
X141650815Y-46909740D02*
X141650815Y-47719264D01*
X141698434Y-47814502D01*
X141746053Y-47862121D01*
X141841291Y-47909740D01*
X142031767Y-47909740D01*
X142127005Y-47862121D01*
X142174624Y-47814502D01*
X142222243Y-47719264D01*
X142222243Y-46909740D01*
X142650815Y-47004979D02*
X142698434Y-46957360D01*
X142793672Y-46909740D01*
X143031767Y-46909740D01*
X143127005Y-46957360D01*
X143174624Y-47004979D01*
X143222243Y-47100217D01*
X143222243Y-47195455D01*
X143174624Y-47338312D01*
X142603196Y-47909740D01*
X143222243Y-47909740D01*
X163576095Y-48630380D02*
X163576095Y-49439904D01*
X163623714Y-49535142D01*
X163671333Y-49582761D01*
X163766571Y-49630380D01*
X163957047Y-49630380D01*
X164052285Y-49582761D01*
X164099904Y-49535142D01*
X164147523Y-49439904D01*
X164147523Y-48630380D01*
X165147523Y-49630380D02*
X164576095Y-49630380D01*
X164861809Y-49630380D02*
X164861809Y-48630380D01*
X164766571Y-48773238D01*
X164671333Y-48868476D01*
X164576095Y-48916095D01*
X169361241Y-67188340D02*
X169027908Y-66712150D01*
X168789813Y-67188340D02*
X168789813Y-66188340D01*
X169170765Y-66188340D01*
X169266003Y-66235960D01*
X169313622Y-66283579D01*
X169361241Y-66378817D01*
X169361241Y-66521674D01*
X169313622Y-66616912D01*
X169266003Y-66664531D01*
X169170765Y-66712150D01*
X168789813Y-66712150D01*
X169646956Y-66188340D02*
X169980289Y-67188340D01*
X170313622Y-66188340D01*
X171170765Y-67188340D02*
X170599337Y-67188340D01*
X170885051Y-67188340D02*
X170885051Y-66188340D01*
X170789813Y-66331198D01*
X170694575Y-66426436D01*
X170599337Y-66474055D01*
X161203333Y-54706380D02*
X160870000Y-54230190D01*
X160631904Y-54706380D02*
X160631904Y-53706380D01*
X161012857Y-53706380D01*
X161108095Y-53754000D01*
X161155714Y-53801619D01*
X161203333Y-53896857D01*
X161203333Y-54039714D01*
X161155714Y-54134952D01*
X161108095Y-54182571D01*
X161012857Y-54230190D01*
X160631904Y-54230190D01*
X162155714Y-54706380D02*
X161584285Y-54706380D01*
X161870000Y-54706380D02*
X161870000Y-53706380D01*
X161774761Y-53849238D01*
X161679523Y-53944476D01*
X161584285Y-53992095D01*
X174758053Y-51928020D02*
X174424720Y-51451830D01*
X174186624Y-51928020D02*
X174186624Y-50928020D01*
X174567577Y-50928020D01*
X174662815Y-50975640D01*
X174710434Y-51023259D01*
X174758053Y-51118497D01*
X174758053Y-51261354D01*
X174710434Y-51356592D01*
X174662815Y-51404211D01*
X174567577Y-51451830D01*
X174186624Y-51451830D01*
X175139005Y-51023259D02*
X175186624Y-50975640D01*
X175281862Y-50928020D01*
X175519958Y-50928020D01*
X175615196Y-50975640D01*
X175662815Y-51023259D01*
X175710434Y-51118497D01*
X175710434Y-51213735D01*
X175662815Y-51356592D01*
X175091386Y-51928020D01*
X175710434Y-51928020D01*
X157506373Y-46898820D02*
X157173040Y-46422630D01*
X156934944Y-46898820D02*
X156934944Y-45898820D01*
X157315897Y-45898820D01*
X157411135Y-45946440D01*
X157458754Y-45994059D01*
X157506373Y-46089297D01*
X157506373Y-46232154D01*
X157458754Y-46327392D01*
X157411135Y-46375011D01*
X157315897Y-46422630D01*
X156934944Y-46422630D01*
X157839706Y-45898820D02*
X158458754Y-45898820D01*
X158125420Y-46279773D01*
X158268278Y-46279773D01*
X158363516Y-46327392D01*
X158411135Y-46375011D01*
X158458754Y-46470249D01*
X158458754Y-46708344D01*
X158411135Y-46803582D01*
X158363516Y-46851201D01*
X158268278Y-46898820D01*
X157982563Y-46898820D01*
X157887325Y-46851201D01*
X157839706Y-46803582D01*
X148057573Y-54455980D02*
X147724240Y-53979790D01*
X147486144Y-54455980D02*
X147486144Y-53455980D01*
X147867097Y-53455980D01*
X147962335Y-53503600D01*
X148009954Y-53551219D01*
X148057573Y-53646457D01*
X148057573Y-53789314D01*
X148009954Y-53884552D01*
X147962335Y-53932171D01*
X147867097Y-53979790D01*
X147486144Y-53979790D01*
X148914716Y-53789314D02*
X148914716Y-54455980D01*
X148676620Y-53408361D02*
X148438525Y-54122647D01*
X149057573Y-54122647D01*
X180849946Y-15078460D02*
X180849946Y-15792746D01*
X180802327Y-15935603D01*
X180707089Y-16030841D01*
X180564232Y-16078460D01*
X180468994Y-16078460D01*
X181230899Y-15078460D02*
X181849946Y-15078460D01*
X181516613Y-15459413D01*
X181659470Y-15459413D01*
X181754708Y-15507032D01*
X181802327Y-15554651D01*
X181849946Y-15649889D01*
X181849946Y-15887984D01*
X181802327Y-15983222D01*
X181754708Y-16030841D01*
X181659470Y-16078460D01*
X181373756Y-16078460D01*
X181278518Y-16030841D01*
X181230899Y-15983222D01*
X165584546Y-15312140D02*
X165584546Y-16026426D01*
X165536927Y-16169283D01*
X165441689Y-16264521D01*
X165298832Y-16312140D01*
X165203594Y-16312140D01*
X166584546Y-16312140D02*
X166013118Y-16312140D01*
X166298832Y-16312140D02*
X166298832Y-15312140D01*
X166203594Y-15454998D01*
X166108356Y-15550236D01*
X166013118Y-15597855D01*
X173355973Y-48027862D02*
X173308354Y-48075481D01*
X173165497Y-48123100D01*
X173070259Y-48123100D01*
X172927401Y-48075481D01*
X172832163Y-47980243D01*
X172784544Y-47885005D01*
X172736925Y-47694529D01*
X172736925Y-47551672D01*
X172784544Y-47361196D01*
X172832163Y-47265958D01*
X172927401Y-47170720D01*
X173070259Y-47123100D01*
X173165497Y-47123100D01*
X173308354Y-47170720D01*
X173355973Y-47218339D01*
X174213116Y-47123100D02*
X174022640Y-47123100D01*
X173927401Y-47170720D01*
X173879782Y-47218339D01*
X173784544Y-47361196D01*
X173736925Y-47551672D01*
X173736925Y-47932624D01*
X173784544Y-48027862D01*
X173832163Y-48075481D01*
X173927401Y-48123100D01*
X174117878Y-48123100D01*
X174213116Y-48075481D01*
X174260735Y-48027862D01*
X174308354Y-47932624D01*
X174308354Y-47694529D01*
X174260735Y-47599291D01*
X174213116Y-47551672D01*
X174117878Y-47504053D01*
X173927401Y-47504053D01*
X173832163Y-47551672D01*
X173784544Y-47599291D01*
X173736925Y-47694529D01*
X159248333Y-54651142D02*
X159200714Y-54698761D01*
X159057857Y-54746380D01*
X158962619Y-54746380D01*
X158819761Y-54698761D01*
X158724523Y-54603523D01*
X158676904Y-54508285D01*
X158629285Y-54317809D01*
X158629285Y-54174952D01*
X158676904Y-53984476D01*
X158724523Y-53889238D01*
X158819761Y-53794000D01*
X158962619Y-53746380D01*
X159057857Y-53746380D01*
X159200714Y-53794000D01*
X159248333Y-53841619D01*
X159629285Y-53841619D02*
X159676904Y-53794000D01*
X159772142Y-53746380D01*
X160010238Y-53746380D01*
X160105476Y-53794000D01*
X160153095Y-53841619D01*
X160200714Y-53936857D01*
X160200714Y-54032095D01*
X160153095Y-54174952D01*
X159581666Y-54746380D01*
X160200714Y-54746380D01*
X164670142Y-45991666D02*
X164717761Y-46039285D01*
X164765380Y-46182142D01*
X164765380Y-46277380D01*
X164717761Y-46420238D01*
X164622523Y-46515476D01*
X164527285Y-46563095D01*
X164336809Y-46610714D01*
X164193952Y-46610714D01*
X164003476Y-46563095D01*
X163908238Y-46515476D01*
X163813000Y-46420238D01*
X163765380Y-46277380D01*
X163765380Y-46182142D01*
X163813000Y-46039285D01*
X163860619Y-45991666D01*
X164098714Y-45134523D02*
X164765380Y-45134523D01*
X163717761Y-45372619D02*
X164432047Y-45610714D01*
X164432047Y-44991666D01*
X150995142Y-29603642D02*
X150947523Y-29651261D01*
X150804666Y-29698880D01*
X150709428Y-29698880D01*
X150566571Y-29651261D01*
X150471333Y-29556023D01*
X150423714Y-29460785D01*
X150376095Y-29270309D01*
X150376095Y-29127452D01*
X150423714Y-28936976D01*
X150471333Y-28841738D01*
X150566571Y-28746500D01*
X150709428Y-28698880D01*
X150804666Y-28698880D01*
X150947523Y-28746500D01*
X150995142Y-28794119D01*
X151947523Y-29698880D02*
X151376095Y-29698880D01*
X151661809Y-29698880D02*
X151661809Y-28698880D01*
X151566571Y-28841738D01*
X151471333Y-28936976D01*
X151376095Y-28984595D01*
X152280857Y-28698880D02*
X152899904Y-28698880D01*
X152566571Y-29079833D01*
X152709428Y-29079833D01*
X152804666Y-29127452D01*
X152852285Y-29175071D01*
X152899904Y-29270309D01*
X152899904Y-29508404D01*
X152852285Y-29603642D01*
X152804666Y-29651261D01*
X152709428Y-29698880D01*
X152423714Y-29698880D01*
X152328476Y-29651261D01*
X152280857Y-29603642D01*
X163386473Y-67278522D02*
X163338854Y-67326141D01*
X163195997Y-67373760D01*
X163100759Y-67373760D01*
X162957901Y-67326141D01*
X162862663Y-67230903D01*
X162815044Y-67135665D01*
X162767425Y-66945189D01*
X162767425Y-66802332D01*
X162815044Y-66611856D01*
X162862663Y-66516618D01*
X162957901Y-66421380D01*
X163100759Y-66373760D01*
X163195997Y-66373760D01*
X163338854Y-66421380D01*
X163386473Y-66468999D01*
X164291235Y-66373760D02*
X163815044Y-66373760D01*
X163767425Y-66849951D01*
X163815044Y-66802332D01*
X163910282Y-66754713D01*
X164148378Y-66754713D01*
X164243616Y-66802332D01*
X164291235Y-66849951D01*
X164338854Y-66945189D01*
X164338854Y-67183284D01*
X164291235Y-67278522D01*
X164243616Y-67326141D01*
X164148378Y-67373760D01*
X163910282Y-67373760D01*
X163815044Y-67326141D01*
X163767425Y-67278522D01*
X141185662Y-38980382D02*
X141138043Y-39028001D01*
X140995186Y-39075620D01*
X140899948Y-39075620D01*
X140757091Y-39028001D01*
X140661853Y-38932763D01*
X140614234Y-38837525D01*
X140566615Y-38647049D01*
X140566615Y-38504192D01*
X140614234Y-38313716D01*
X140661853Y-38218478D01*
X140757091Y-38123240D01*
X140899948Y-38075620D01*
X140995186Y-38075620D01*
X141138043Y-38123240D01*
X141185662Y-38170859D01*
X142138043Y-39075620D02*
X141566615Y-39075620D01*
X141852329Y-39075620D02*
X141852329Y-38075620D01*
X141757091Y-38218478D01*
X141661853Y-38313716D01*
X141566615Y-38361335D01*
X142995186Y-38408954D02*
X142995186Y-39075620D01*
X142757091Y-38028001D02*
X142518996Y-38742287D01*
X143138043Y-38742287D01*
X183025142Y-40303357D02*
X183072761Y-40350976D01*
X183120380Y-40493833D01*
X183120380Y-40589071D01*
X183072761Y-40731928D01*
X182977523Y-40827166D01*
X182882285Y-40874785D01*
X182691809Y-40922404D01*
X182548952Y-40922404D01*
X182358476Y-40874785D01*
X182263238Y-40827166D01*
X182168000Y-40731928D01*
X182120380Y-40589071D01*
X182120380Y-40493833D01*
X182168000Y-40350976D01*
X182215619Y-40303357D01*
X183120380Y-39350976D02*
X183120380Y-39922404D01*
X183120380Y-39636690D02*
X182120380Y-39636690D01*
X182263238Y-39731928D01*
X182358476Y-39827166D01*
X182406095Y-39922404D01*
X182120380Y-38731928D02*
X182120380Y-38636690D01*
X182168000Y-38541452D01*
X182215619Y-38493833D01*
X182310857Y-38446214D01*
X182501333Y-38398595D01*
X182739428Y-38398595D01*
X182929904Y-38446214D01*
X183025142Y-38493833D01*
X183072761Y-38541452D01*
X183120380Y-38636690D01*
X183120380Y-38731928D01*
X183072761Y-38827166D01*
X183025142Y-38874785D01*
X182929904Y-38922404D01*
X182739428Y-38970023D01*
X182501333Y-38970023D01*
X182310857Y-38922404D01*
X182215619Y-38874785D01*
X182168000Y-38827166D01*
X182120380Y-38731928D01*
X172315142Y-44330857D02*
X172362761Y-44378476D01*
X172410380Y-44521333D01*
X172410380Y-44616571D01*
X172362761Y-44759428D01*
X172267523Y-44854666D01*
X172172285Y-44902285D01*
X171981809Y-44949904D01*
X171838952Y-44949904D01*
X171648476Y-44902285D01*
X171553238Y-44854666D01*
X171458000Y-44759428D01*
X171410380Y-44616571D01*
X171410380Y-44521333D01*
X171458000Y-44378476D01*
X171505619Y-44330857D01*
X172410380Y-43378476D02*
X172410380Y-43949904D01*
X172410380Y-43664190D02*
X171410380Y-43664190D01*
X171553238Y-43759428D01*
X171648476Y-43854666D01*
X171696095Y-43949904D01*
X172410380Y-42426095D02*
X172410380Y-42997523D01*
X172410380Y-42711809D02*
X171410380Y-42711809D01*
X171553238Y-42807047D01*
X171648476Y-42902285D01*
X171696095Y-42997523D01*
X180109904Y-31186380D02*
X180109904Y-30186380D01*
X180348000Y-30186380D01*
X180490857Y-30234000D01*
X180586095Y-30329238D01*
X180633714Y-30424476D01*
X180681333Y-30614952D01*
X180681333Y-30757809D01*
X180633714Y-30948285D01*
X180586095Y-31043523D01*
X180490857Y-31138761D01*
X180348000Y-31186380D01*
X180109904Y-31186380D01*
X181014666Y-30186380D02*
X181633714Y-30186380D01*
X181300380Y-30567333D01*
X181443238Y-30567333D01*
X181538476Y-30614952D01*
X181586095Y-30662571D01*
X181633714Y-30757809D01*
X181633714Y-30995904D01*
X181586095Y-31091142D01*
X181538476Y-31138761D01*
X181443238Y-31186380D01*
X181157523Y-31186380D01*
X181062285Y-31138761D01*
X181014666Y-31091142D01*
X183157904Y-31186380D02*
X183157904Y-30186380D01*
X183396000Y-30186380D01*
X183538857Y-30234000D01*
X183634095Y-30329238D01*
X183681714Y-30424476D01*
X183729333Y-30614952D01*
X183729333Y-30757809D01*
X183681714Y-30948285D01*
X183634095Y-31043523D01*
X183538857Y-31138761D01*
X183396000Y-31186380D01*
X183157904Y-31186380D01*
X184586476Y-30519714D02*
X184586476Y-31186380D01*
X184348380Y-30138761D02*
X184110285Y-30853047D01*
X184729333Y-30853047D01*
X152310506Y-15195300D02*
X152310506Y-15909586D01*
X152262887Y-16052443D01*
X152167649Y-16147681D01*
X152024792Y-16195300D01*
X151929554Y-16195300D01*
X153215268Y-15528634D02*
X153215268Y-16195300D01*
X152977173Y-15147681D02*
X152739078Y-15861967D01*
X153358125Y-15861967D01*
X152187613Y-39019740D02*
X151854280Y-38543550D01*
X151616184Y-39019740D02*
X151616184Y-38019740D01*
X151997137Y-38019740D01*
X152092375Y-38067360D01*
X152139994Y-38114979D01*
X152187613Y-38210217D01*
X152187613Y-38353074D01*
X152139994Y-38448312D01*
X152092375Y-38495931D01*
X151997137Y-38543550D01*
X151616184Y-38543550D01*
X152520946Y-38019740D02*
X153187613Y-38019740D01*
X152759041Y-39019740D01*
X147331133Y-42235380D02*
X146997800Y-41759190D01*
X146759704Y-42235380D02*
X146759704Y-41235380D01*
X147140657Y-41235380D01*
X147235895Y-41283000D01*
X147283514Y-41330619D01*
X147331133Y-41425857D01*
X147331133Y-41568714D01*
X147283514Y-41663952D01*
X147235895Y-41711571D01*
X147140657Y-41759190D01*
X146759704Y-41759190D01*
X147902561Y-41663952D02*
X147807323Y-41616333D01*
X147759704Y-41568714D01*
X147712085Y-41473476D01*
X147712085Y-41425857D01*
X147759704Y-41330619D01*
X147807323Y-41283000D01*
X147902561Y-41235380D01*
X148093038Y-41235380D01*
X148188276Y-41283000D01*
X148235895Y-41330619D01*
X148283514Y-41425857D01*
X148283514Y-41473476D01*
X148235895Y-41568714D01*
X148188276Y-41616333D01*
X148093038Y-41663952D01*
X147902561Y-41663952D01*
X147807323Y-41711571D01*
X147759704Y-41759190D01*
X147712085Y-41854428D01*
X147712085Y-42044904D01*
X147759704Y-42140142D01*
X147807323Y-42187761D01*
X147902561Y-42235380D01*
X148093038Y-42235380D01*
X148188276Y-42187761D01*
X148235895Y-42140142D01*
X148283514Y-42044904D01*
X148283514Y-41854428D01*
X148235895Y-41759190D01*
X148188276Y-41711571D01*
X148093038Y-41663952D01*
X175204380Y-43600666D02*
X174728190Y-43934000D01*
X175204380Y-44172095D02*
X174204380Y-44172095D01*
X174204380Y-43791142D01*
X174252000Y-43695904D01*
X174299619Y-43648285D01*
X174394857Y-43600666D01*
X174537714Y-43600666D01*
X174632952Y-43648285D01*
X174680571Y-43695904D01*
X174728190Y-43791142D01*
X174728190Y-44172095D01*
X174204380Y-42695904D02*
X174204380Y-43172095D01*
X174680571Y-43219714D01*
X174632952Y-43172095D01*
X174585333Y-43076857D01*
X174585333Y-42838761D01*
X174632952Y-42743523D01*
X174680571Y-42695904D01*
X174775809Y-42648285D01*
X175013904Y-42648285D01*
X175109142Y-42695904D01*
X175156761Y-42743523D01*
X175204380Y-42838761D01*
X175204380Y-43076857D01*
X175156761Y-43172095D01*
X175109142Y-43219714D01*
X178252380Y-44108666D02*
X177776190Y-44442000D01*
X178252380Y-44680095D02*
X177252380Y-44680095D01*
X177252380Y-44299142D01*
X177300000Y-44203904D01*
X177347619Y-44156285D01*
X177442857Y-44108666D01*
X177585714Y-44108666D01*
X177680952Y-44156285D01*
X177728571Y-44203904D01*
X177776190Y-44299142D01*
X177776190Y-44680095D01*
X177252380Y-43251523D02*
X177252380Y-43442000D01*
X177300000Y-43537238D01*
X177347619Y-43584857D01*
X177490476Y-43680095D01*
X177680952Y-43727714D01*
X178061904Y-43727714D01*
X178157142Y-43680095D01*
X178204761Y-43632476D01*
X178252380Y-43537238D01*
X178252380Y-43346761D01*
X178204761Y-43251523D01*
X178157142Y-43203904D01*
X178061904Y-43156285D01*
X177823809Y-43156285D01*
X177728571Y-43203904D01*
X177680952Y-43251523D01*
X177633333Y-43346761D01*
X177633333Y-43537238D01*
X177680952Y-43632476D01*
X177728571Y-43680095D01*
X177823809Y-43727714D01*
X173751335Y-26071580D02*
X173751335Y-26881104D01*
X173798954Y-26976342D01*
X173846573Y-27023961D01*
X173941811Y-27071580D01*
X174132287Y-27071580D01*
X174227525Y-27023961D01*
X174275144Y-26976342D01*
X174322763Y-26881104D01*
X174322763Y-26071580D01*
X174703716Y-26071580D02*
X175322763Y-26071580D01*
X174989430Y-26452533D01*
X175132287Y-26452533D01*
X175227525Y-26500152D01*
X175275144Y-26547771D01*
X175322763Y-26643009D01*
X175322763Y-26881104D01*
X175275144Y-26976342D01*
X175227525Y-27023961D01*
X175132287Y-27071580D01*
X174846573Y-27071580D01*
X174751335Y-27023961D01*
X174703716Y-26976342D01*
X175139053Y-54118782D02*
X175091434Y-54166401D01*
X174948577Y-54214020D01*
X174853339Y-54214020D01*
X174710481Y-54166401D01*
X174615243Y-54071163D01*
X174567624Y-53975925D01*
X174520005Y-53785449D01*
X174520005Y-53642592D01*
X174567624Y-53452116D01*
X174615243Y-53356878D01*
X174710481Y-53261640D01*
X174853339Y-53214020D01*
X174948577Y-53214020D01*
X175091434Y-53261640D01*
X175139053Y-53309259D01*
X175472386Y-53214020D02*
X176139053Y-53214020D01*
X175710481Y-54214020D01*
X143118380Y-32700904D02*
X143927904Y-32700904D01*
X144023142Y-32653285D01*
X144070761Y-32605666D01*
X144118380Y-32510428D01*
X144118380Y-32319952D01*
X144070761Y-32224714D01*
X144023142Y-32177095D01*
X143927904Y-32129476D01*
X143118380Y-32129476D01*
X143451714Y-31224714D02*
X144118380Y-31224714D01*
X143070761Y-31462809D02*
X143785047Y-31700904D01*
X143785047Y-31081857D01*
X147427142Y-57404166D02*
X147474761Y-57451785D01*
X147522380Y-57594642D01*
X147522380Y-57689880D01*
X147474761Y-57832738D01*
X147379523Y-57927976D01*
X147284285Y-57975595D01*
X147093809Y-58023214D01*
X146950952Y-58023214D01*
X146760476Y-57975595D01*
X146665238Y-57927976D01*
X146570000Y-57832738D01*
X146522380Y-57689880D01*
X146522380Y-57594642D01*
X146570000Y-57451785D01*
X146617619Y-57404166D01*
X147522380Y-56927976D02*
X147522380Y-56737500D01*
X147474761Y-56642261D01*
X147427142Y-56594642D01*
X147284285Y-56499404D01*
X147093809Y-56451785D01*
X146712857Y-56451785D01*
X146617619Y-56499404D01*
X146570000Y-56547023D01*
X146522380Y-56642261D01*
X146522380Y-56832738D01*
X146570000Y-56927976D01*
X146617619Y-56975595D01*
X146712857Y-57023214D01*
X146950952Y-57023214D01*
X147046190Y-56975595D01*
X147093809Y-56927976D01*
X147141428Y-56832738D01*
X147141428Y-56642261D01*
X147093809Y-56547023D01*
X147046190Y-56499404D01*
X146950952Y-56451785D01*
M02*
