G04 #@! TF.GenerationSoftware,KiCad,Pcbnew,(5.1.0)-1*
G04 #@! TF.CreationDate,2020-05-22T07:58:56-04:00*
G04 #@! TF.ProjectId,SiPMV4-30050,5369504d-5634-42d3-9330-3035302e6b69,rev?*
G04 #@! TF.SameCoordinates,Original*
G04 #@! TF.FileFunction,Soldermask,Bot*
G04 #@! TF.FilePolarity,Negative*
%FSLAX46Y46*%
G04 Gerber Fmt 4.6, Leading zero omitted, Abs format (unit mm)*
G04 Created by KiCad (PCBNEW (5.1.0)-1) date 2020-05-22 07:58:56*
%MOMM*%
%LPD*%
G04 APERTURE LIST*
%ADD10C,0.100000*%
G04 APERTURE END LIST*
D10*
G36*
X189879576Y-63466098D02*
G01*
X189985899Y-63487247D01*
X190286362Y-63611703D01*
X190556771Y-63792385D01*
X190786735Y-64022349D01*
X190967417Y-64292758D01*
X190967418Y-64292760D01*
X191091873Y-64593222D01*
X191142204Y-64846249D01*
X191155320Y-64912191D01*
X191155320Y-65237409D01*
X191091873Y-65556379D01*
X190967417Y-65856842D01*
X190786735Y-66127251D01*
X190556771Y-66357215D01*
X190286362Y-66537897D01*
X189985899Y-66662353D01*
X189879576Y-66683502D01*
X189666931Y-66725800D01*
X189341709Y-66725800D01*
X189129064Y-66683502D01*
X189022741Y-66662353D01*
X188722278Y-66537897D01*
X188451869Y-66357215D01*
X188221905Y-66127251D01*
X188041223Y-65856842D01*
X187916767Y-65556379D01*
X187853320Y-65237409D01*
X187853320Y-64912191D01*
X187866437Y-64846249D01*
X187916767Y-64593222D01*
X188041222Y-64292760D01*
X188041223Y-64292758D01*
X188221905Y-64022349D01*
X188451869Y-63792385D01*
X188722278Y-63611703D01*
X189022741Y-63487247D01*
X189129064Y-63466098D01*
X189341709Y-63423800D01*
X189666931Y-63423800D01*
X189879576Y-63466098D01*
X189879576Y-63466098D01*
G37*
G36*
X139270076Y-63074938D02*
G01*
X139376399Y-63096087D01*
X139676862Y-63220543D01*
X139947271Y-63401225D01*
X140177235Y-63631189D01*
X140177236Y-63631191D01*
X140357918Y-63901600D01*
X140482373Y-64202062D01*
X140545820Y-64521029D01*
X140545820Y-64846251D01*
X140503522Y-65058896D01*
X140482373Y-65165219D01*
X140357917Y-65465682D01*
X140177235Y-65736091D01*
X139947271Y-65966055D01*
X139676862Y-66146737D01*
X139376399Y-66271193D01*
X139270076Y-66292342D01*
X139057431Y-66334640D01*
X138732209Y-66334640D01*
X138519564Y-66292342D01*
X138413241Y-66271193D01*
X138112778Y-66146737D01*
X137842369Y-65966055D01*
X137612405Y-65736091D01*
X137431723Y-65465682D01*
X137307267Y-65165219D01*
X137286118Y-65058896D01*
X137243820Y-64846251D01*
X137243820Y-64521029D01*
X137307267Y-64202062D01*
X137431722Y-63901600D01*
X137612404Y-63631191D01*
X137612405Y-63631189D01*
X137842369Y-63401225D01*
X138112778Y-63220543D01*
X138413241Y-63096087D01*
X138519564Y-63074938D01*
X138732209Y-63032640D01*
X139057431Y-63032640D01*
X139270076Y-63074938D01*
X139270076Y-63074938D01*
G37*
G36*
X150194674Y-62125465D02*
G01*
X150232367Y-62136899D01*
X150267103Y-62155466D01*
X150297548Y-62180452D01*
X150322534Y-62210897D01*
X150341101Y-62245633D01*
X150352535Y-62283326D01*
X150357000Y-62328661D01*
X150357000Y-63165339D01*
X150352535Y-63210674D01*
X150341101Y-63248367D01*
X150322534Y-63283103D01*
X150297548Y-63313548D01*
X150267103Y-63338534D01*
X150232367Y-63357101D01*
X150194674Y-63368535D01*
X150149339Y-63373000D01*
X149062661Y-63373000D01*
X149017326Y-63368535D01*
X148979633Y-63357101D01*
X148944897Y-63338534D01*
X148914452Y-63313548D01*
X148889466Y-63283103D01*
X148870899Y-63248367D01*
X148859465Y-63210674D01*
X148855000Y-63165339D01*
X148855000Y-62328661D01*
X148859465Y-62283326D01*
X148870899Y-62245633D01*
X148889466Y-62210897D01*
X148914452Y-62180452D01*
X148944897Y-62155466D01*
X148979633Y-62136899D01*
X149017326Y-62125465D01*
X149062661Y-62121000D01*
X150149339Y-62121000D01*
X150194674Y-62125465D01*
X150194674Y-62125465D01*
G37*
G36*
X150194674Y-60075465D02*
G01*
X150232367Y-60086899D01*
X150267103Y-60105466D01*
X150297548Y-60130452D01*
X150322534Y-60160897D01*
X150341101Y-60195633D01*
X150352535Y-60233326D01*
X150357000Y-60278661D01*
X150357000Y-61115339D01*
X150352535Y-61160674D01*
X150341101Y-61198367D01*
X150322534Y-61233103D01*
X150297548Y-61263548D01*
X150267103Y-61288534D01*
X150232367Y-61307101D01*
X150194674Y-61318535D01*
X150149339Y-61323000D01*
X149062661Y-61323000D01*
X149017326Y-61318535D01*
X148979633Y-61307101D01*
X148944897Y-61288534D01*
X148914452Y-61263548D01*
X148889466Y-61233103D01*
X148870899Y-61198367D01*
X148859465Y-61160674D01*
X148855000Y-61115339D01*
X148855000Y-60278661D01*
X148859465Y-60233326D01*
X148870899Y-60195633D01*
X148889466Y-60160897D01*
X148914452Y-60130452D01*
X148944897Y-60105466D01*
X148979633Y-60086899D01*
X149017326Y-60075465D01*
X149062661Y-60071000D01*
X150149339Y-60071000D01*
X150194674Y-60075465D01*
X150194674Y-60075465D01*
G37*
G36*
X187735289Y-56513386D02*
G01*
X187911678Y-56530759D01*
X188251168Y-56633742D01*
X188251170Y-56633743D01*
X188564042Y-56800977D01*
X188658363Y-56878384D01*
X188838281Y-57026039D01*
X189063342Y-57300277D01*
X189230578Y-57613152D01*
X189333561Y-57952642D01*
X189368334Y-58305700D01*
X189333561Y-58658758D01*
X189230578Y-58998248D01*
X189230577Y-58998250D01*
X189063343Y-59311122D01*
X188838281Y-59585361D01*
X188564042Y-59810423D01*
X188251170Y-59977657D01*
X188251168Y-59977658D01*
X187911678Y-60080641D01*
X187735289Y-60098014D01*
X187647096Y-60106700D01*
X183970144Y-60106700D01*
X183881951Y-60098014D01*
X183705562Y-60080641D01*
X183366072Y-59977658D01*
X183366070Y-59977657D01*
X183053198Y-59810423D01*
X182778959Y-59585361D01*
X182553897Y-59311122D01*
X182386663Y-58998250D01*
X182386662Y-58998248D01*
X182283679Y-58658758D01*
X182248906Y-58305700D01*
X182283679Y-57952642D01*
X182386662Y-57613152D01*
X182553898Y-57300277D01*
X182778959Y-57026039D01*
X182958877Y-56878384D01*
X183053198Y-56800977D01*
X183366070Y-56633743D01*
X183366072Y-56633742D01*
X183705562Y-56530759D01*
X183881951Y-56513386D01*
X183970144Y-56504700D01*
X187647096Y-56504700D01*
X187735289Y-56513386D01*
X187735289Y-56513386D01*
G37*
G36*
X157269540Y-60031220D02*
G01*
X156747540Y-60031220D01*
X156747540Y-59736219D01*
X156745138Y-59711833D01*
X156738025Y-59688384D01*
X156726474Y-59666773D01*
X156710929Y-59647831D01*
X156691987Y-59632286D01*
X156670376Y-59620735D01*
X156646927Y-59613622D01*
X156622541Y-59611220D01*
X155867540Y-59611220D01*
X155867540Y-58209220D01*
X157269540Y-58209220D01*
X157269540Y-60031220D01*
X157269540Y-60031220D01*
G37*
G36*
X155389540Y-59611220D02*
G01*
X153567540Y-59611220D01*
X153567540Y-59089220D01*
X153862541Y-59089220D01*
X153886927Y-59086818D01*
X153910376Y-59079705D01*
X153931987Y-59068154D01*
X153950929Y-59052609D01*
X153966474Y-59033667D01*
X153978025Y-59012056D01*
X153985138Y-58988607D01*
X153987540Y-58964221D01*
X153987540Y-58209220D01*
X155389540Y-58209220D01*
X155389540Y-59611220D01*
X155389540Y-59611220D01*
G37*
G36*
X154499540Y-56154221D02*
G01*
X154501942Y-56178607D01*
X154509055Y-56202056D01*
X154520606Y-56223667D01*
X154536151Y-56242609D01*
X154555093Y-56258154D01*
X154576704Y-56269705D01*
X154600153Y-56276818D01*
X154624539Y-56279220D01*
X155379540Y-56279220D01*
X155379540Y-57681220D01*
X153977540Y-57681220D01*
X153977540Y-55859220D01*
X154499540Y-55859220D01*
X154499540Y-56154221D01*
X154499540Y-56154221D01*
G37*
G36*
X157679540Y-56801220D02*
G01*
X157384539Y-56801220D01*
X157360153Y-56803622D01*
X157336704Y-56810735D01*
X157315093Y-56822286D01*
X157296151Y-56837831D01*
X157280606Y-56856773D01*
X157269055Y-56878384D01*
X157261942Y-56901833D01*
X157259540Y-56926219D01*
X157259540Y-57681220D01*
X155857540Y-57681220D01*
X155857540Y-56279220D01*
X157679540Y-56279220D01*
X157679540Y-56801220D01*
X157679540Y-56801220D01*
G37*
G36*
X181345443Y-52387013D02*
G01*
X181505862Y-52435676D01*
X181638526Y-52506586D01*
X181653698Y-52514696D01*
X181783279Y-52621041D01*
X181889624Y-52750622D01*
X181889625Y-52750624D01*
X181968644Y-52898458D01*
X182017307Y-53058877D01*
X182033737Y-53225700D01*
X182017307Y-53392523D01*
X181968644Y-53552942D01*
X181897734Y-53685606D01*
X181889624Y-53700778D01*
X181783279Y-53830359D01*
X181653698Y-53936704D01*
X181653696Y-53936705D01*
X181505862Y-54015724D01*
X181345443Y-54064387D01*
X181220424Y-54076700D01*
X180236816Y-54076700D01*
X180111797Y-54064387D01*
X179951378Y-54015724D01*
X179803544Y-53936705D01*
X179803542Y-53936704D01*
X179673961Y-53830359D01*
X179567616Y-53700778D01*
X179559506Y-53685606D01*
X179488596Y-53552942D01*
X179439933Y-53392523D01*
X179423503Y-53225700D01*
X179439933Y-53058877D01*
X179488596Y-52898458D01*
X179567615Y-52750624D01*
X179567616Y-52750622D01*
X179673961Y-52621041D01*
X179803542Y-52514696D01*
X179818714Y-52506586D01*
X179951378Y-52435676D01*
X180111797Y-52387013D01*
X180236816Y-52374700D01*
X181220424Y-52374700D01*
X181345443Y-52387013D01*
X181345443Y-52387013D01*
G37*
G36*
X181345443Y-49847013D02*
G01*
X181505862Y-49895676D01*
X181601321Y-49946700D01*
X181653698Y-49974696D01*
X181783279Y-50081041D01*
X181889624Y-50210622D01*
X181889625Y-50210624D01*
X181968644Y-50358458D01*
X182017307Y-50518877D01*
X182033737Y-50685700D01*
X182017307Y-50852523D01*
X181968644Y-51012942D01*
X181897734Y-51145606D01*
X181889624Y-51160778D01*
X181783279Y-51290359D01*
X181653698Y-51396704D01*
X181653696Y-51396705D01*
X181505862Y-51475724D01*
X181345443Y-51524387D01*
X181220424Y-51536700D01*
X180236816Y-51536700D01*
X180111797Y-51524387D01*
X179951378Y-51475724D01*
X179803544Y-51396705D01*
X179803542Y-51396704D01*
X179673961Y-51290359D01*
X179567616Y-51160778D01*
X179559506Y-51145606D01*
X179488596Y-51012942D01*
X179439933Y-50852523D01*
X179423503Y-50685700D01*
X179439933Y-50518877D01*
X179488596Y-50358458D01*
X179567615Y-50210624D01*
X179567616Y-50210622D01*
X179673961Y-50081041D01*
X179803542Y-49974696D01*
X179855919Y-49946700D01*
X179951378Y-49895676D01*
X180111797Y-49847013D01*
X180236816Y-49834700D01*
X181220424Y-49834700D01*
X181345443Y-49847013D01*
X181345443Y-49847013D01*
G37*
G36*
X187735289Y-46353386D02*
G01*
X187911678Y-46370759D01*
X188251168Y-46473742D01*
X188251170Y-46473743D01*
X188564042Y-46640977D01*
X188564044Y-46640978D01*
X188564043Y-46640978D01*
X188838281Y-46866039D01*
X189063342Y-47140277D01*
X189230578Y-47453152D01*
X189333561Y-47792642D01*
X189368334Y-48145700D01*
X189333561Y-48498758D01*
X189230578Y-48838248D01*
X189230577Y-48838250D01*
X189063343Y-49151122D01*
X188838281Y-49425361D01*
X188564042Y-49650423D01*
X188251170Y-49817657D01*
X188251168Y-49817658D01*
X187911678Y-49920641D01*
X187735289Y-49938014D01*
X187647096Y-49946700D01*
X183970144Y-49946700D01*
X183881951Y-49938014D01*
X183705562Y-49920641D01*
X183366072Y-49817658D01*
X183366070Y-49817657D01*
X183053198Y-49650423D01*
X182778959Y-49425361D01*
X182553897Y-49151122D01*
X182386663Y-48838250D01*
X182386662Y-48838248D01*
X182283679Y-48498758D01*
X182248906Y-48145700D01*
X182283679Y-47792642D01*
X182386662Y-47453152D01*
X182553898Y-47140277D01*
X182778959Y-46866039D01*
X183053197Y-46640978D01*
X183053196Y-46640978D01*
X183053198Y-46640977D01*
X183366070Y-46473743D01*
X183366072Y-46473742D01*
X183705562Y-46370759D01*
X183881951Y-46353386D01*
X183970144Y-46344700D01*
X187647096Y-46344700D01*
X187735289Y-46353386D01*
X187735289Y-46353386D01*
G37*
G36*
X190095476Y-29008458D02*
G01*
X190201799Y-29029607D01*
X190502262Y-29154063D01*
X190772671Y-29334745D01*
X191002635Y-29564709D01*
X191183317Y-29835118D01*
X191307773Y-30135581D01*
X191371220Y-30454551D01*
X191371220Y-30779769D01*
X191307773Y-31098739D01*
X191183317Y-31399202D01*
X191002635Y-31669611D01*
X190772671Y-31899575D01*
X190502262Y-32080257D01*
X190201799Y-32204713D01*
X190095476Y-32225862D01*
X189882831Y-32268160D01*
X189557609Y-32268160D01*
X189344964Y-32225862D01*
X189238641Y-32204713D01*
X188938178Y-32080257D01*
X188667769Y-31899575D01*
X188437805Y-31669611D01*
X188257123Y-31399202D01*
X188132667Y-31098739D01*
X188069220Y-30779769D01*
X188069220Y-30454551D01*
X188132667Y-30135581D01*
X188257123Y-29835118D01*
X188437805Y-29564709D01*
X188667769Y-29334745D01*
X188938178Y-29154063D01*
X189238641Y-29029607D01*
X189344964Y-29008458D01*
X189557609Y-28966160D01*
X189882831Y-28966160D01*
X190095476Y-29008458D01*
X190095476Y-29008458D01*
G37*
G36*
X150505532Y-20301078D02*
G01*
X150751399Y-20402919D01*
X150828219Y-20454249D01*
X150972671Y-20550769D01*
X151160851Y-20738949D01*
X151308702Y-20960223D01*
X151410542Y-21206088D01*
X151462460Y-21467097D01*
X151462460Y-21733223D01*
X151410542Y-21994232D01*
X151308702Y-22240097D01*
X151214499Y-22381082D01*
X151160850Y-22461372D01*
X150972672Y-22649550D01*
X150751399Y-22797401D01*
X150751398Y-22797402D01*
X150751397Y-22797402D01*
X150505532Y-22899242D01*
X150244523Y-22951160D01*
X149978397Y-22951160D01*
X149717388Y-22899242D01*
X149471523Y-22797402D01*
X149471522Y-22797402D01*
X149471521Y-22797401D01*
X149250248Y-22649550D01*
X149062070Y-22461372D01*
X149008422Y-22381082D01*
X148914218Y-22240097D01*
X148812378Y-21994232D01*
X148760460Y-21733223D01*
X148760460Y-21467097D01*
X148812378Y-21206088D01*
X148914218Y-20960223D01*
X149062069Y-20738949D01*
X149250249Y-20550769D01*
X149394701Y-20454249D01*
X149471521Y-20402919D01*
X149717388Y-20301078D01*
X149978397Y-20249160D01*
X150244523Y-20249160D01*
X150505532Y-20301078D01*
X150505532Y-20301078D01*
G37*
G36*
X156542460Y-22951160D02*
G01*
X153840460Y-22951160D01*
X153840460Y-20249160D01*
X156542460Y-20249160D01*
X156542460Y-22951160D01*
X156542460Y-22951160D01*
G37*
G36*
X169999380Y-22854640D02*
G01*
X167297380Y-22854640D01*
X167297380Y-20152640D01*
X169999380Y-20152640D01*
X169999380Y-22854640D01*
X169999380Y-22854640D01*
G37*
G36*
X163962452Y-20204558D02*
G01*
X164208319Y-20306399D01*
X164268217Y-20346422D01*
X164429591Y-20454249D01*
X164617771Y-20642429D01*
X164765622Y-20863703D01*
X164867462Y-21109568D01*
X164919380Y-21370577D01*
X164919380Y-21636703D01*
X164867462Y-21897712D01*
X164770670Y-22131391D01*
X164765621Y-22143579D01*
X164617770Y-22364852D01*
X164429592Y-22553030D01*
X164208319Y-22700881D01*
X164208318Y-22700882D01*
X164208317Y-22700882D01*
X163962452Y-22802722D01*
X163701443Y-22854640D01*
X163435317Y-22854640D01*
X163174308Y-22802722D01*
X162928443Y-22700882D01*
X162928442Y-22700882D01*
X162928441Y-22700881D01*
X162707168Y-22553030D01*
X162518990Y-22364852D01*
X162371139Y-22143579D01*
X162366091Y-22131391D01*
X162269298Y-21897712D01*
X162217380Y-21636703D01*
X162217380Y-21370577D01*
X162269298Y-21109568D01*
X162371138Y-20863703D01*
X162518989Y-20642429D01*
X162707169Y-20454249D01*
X162868543Y-20346422D01*
X162928441Y-20306399D01*
X163174308Y-20204558D01*
X163435317Y-20152640D01*
X163701443Y-20152640D01*
X163962452Y-20204558D01*
X163962452Y-20204558D01*
G37*
G36*
X139313256Y-19219298D02*
G01*
X139419579Y-19240447D01*
X139720042Y-19364903D01*
X139990451Y-19545585D01*
X140220415Y-19775549D01*
X140293386Y-19884758D01*
X140401098Y-20045960D01*
X140525553Y-20346422D01*
X140584433Y-20642428D01*
X140589000Y-20665391D01*
X140589000Y-20990609D01*
X140525553Y-21309579D01*
X140401097Y-21610042D01*
X140220415Y-21880451D01*
X139990451Y-22110415D01*
X139720042Y-22291097D01*
X139419579Y-22415553D01*
X139331867Y-22433000D01*
X139100611Y-22479000D01*
X138775389Y-22479000D01*
X138544133Y-22433000D01*
X138456421Y-22415553D01*
X138155958Y-22291097D01*
X137885549Y-22110415D01*
X137655585Y-21880451D01*
X137474903Y-21610042D01*
X137350447Y-21309579D01*
X137287000Y-20990609D01*
X137287000Y-20665391D01*
X137291568Y-20642428D01*
X137350447Y-20346422D01*
X137474902Y-20045960D01*
X137582614Y-19884758D01*
X137655585Y-19775549D01*
X137885549Y-19545585D01*
X138155958Y-19364903D01*
X138456421Y-19240447D01*
X138562744Y-19219298D01*
X138775389Y-19177000D01*
X139100611Y-19177000D01*
X139313256Y-19219298D01*
X139313256Y-19219298D01*
G37*
G36*
X179427036Y-19775551D02*
G01*
X179464072Y-19782918D01*
X179709939Y-19884759D01*
X179821328Y-19959187D01*
X179931211Y-20032609D01*
X180119391Y-20220789D01*
X180267242Y-20442063D01*
X180369082Y-20687928D01*
X180421000Y-20948937D01*
X180421000Y-21215063D01*
X180369082Y-21476072D01*
X180267242Y-21721937D01*
X180149793Y-21897712D01*
X180119390Y-21943212D01*
X179931212Y-22131390D01*
X179709939Y-22279241D01*
X179709938Y-22279242D01*
X179709937Y-22279242D01*
X179464072Y-22381082D01*
X179203063Y-22433000D01*
X178936937Y-22433000D01*
X178675928Y-22381082D01*
X178430063Y-22279242D01*
X178430062Y-22279242D01*
X178430061Y-22279241D01*
X178208788Y-22131390D01*
X178020610Y-21943212D01*
X177990208Y-21897712D01*
X177872758Y-21721937D01*
X177770918Y-21476072D01*
X177719000Y-21215063D01*
X177719000Y-20948937D01*
X177770918Y-20687928D01*
X177872758Y-20442063D01*
X178020609Y-20220789D01*
X178208789Y-20032609D01*
X178318672Y-19959187D01*
X178430061Y-19884759D01*
X178675928Y-19782918D01*
X178712964Y-19775551D01*
X178936937Y-19731000D01*
X179203063Y-19731000D01*
X179427036Y-19775551D01*
X179427036Y-19775551D01*
G37*
G36*
X185501000Y-22433000D02*
G01*
X182799000Y-22433000D01*
X182799000Y-19731000D01*
X185501000Y-19731000D01*
X185501000Y-22433000D01*
X185501000Y-22433000D01*
G37*
M02*
