G04 #@! TF.GenerationSoftware,KiCad,Pcbnew,(5.1.0)-1*
G04 #@! TF.CreationDate,2020-05-22T08:02:51-04:00*
G04 #@! TF.ProjectId,SiPMV4-60050,5369504d-5634-42d3-9630-3035302e6b69,rev?*
G04 #@! TF.SameCoordinates,Original*
G04 #@! TF.FileFunction,Copper,L2,Bot*
G04 #@! TF.FilePolarity,Positive*
%FSLAX46Y46*%
G04 Gerber Fmt 4.6, Leading zero omitted, Abs format (unit mm)*
G04 Created by KiCad (PCBNEW (5.1.0)-1) date 2020-05-22 08:02:51*
%MOMM*%
%LPD*%
G04 APERTURE LIST*
%ADD10C,0.100000*%
%ADD11C,2.900000*%
%ADD12C,0.600000*%
%ADD13O,7.000000X3.500000*%
%ADD14O,2.500000X1.600000*%
%ADD15C,1.150000*%
%ADD16C,2.600000*%
%ADD17R,2.600000X2.600000*%
%ADD18C,0.800000*%
%ADD19C,0.500000*%
%ADD20C,0.400000*%
%ADD21C,0.300000*%
%ADD22C,0.350000*%
%ADD23C,4.000000*%
%ADD24C,0.250000*%
%ADD25C,0.254000*%
G04 APERTURE END LIST*
D10*
G36*
X156716925Y-54649896D02*
G01*
X156745076Y-54654072D01*
X156772683Y-54660987D01*
X156799478Y-54670575D01*
X156825205Y-54682743D01*
X156849615Y-54697374D01*
X156872474Y-54714327D01*
X156893561Y-54733439D01*
X156912673Y-54754526D01*
X156929626Y-54777385D01*
X156944257Y-54801795D01*
X156956425Y-54827522D01*
X156966013Y-54854317D01*
X156972928Y-54881924D01*
X156977104Y-54910075D01*
X156978500Y-54938500D01*
X156978500Y-60658500D01*
X156977104Y-60686925D01*
X156972928Y-60715076D01*
X156966013Y-60742683D01*
X156956425Y-60769478D01*
X156944257Y-60795205D01*
X156929626Y-60819615D01*
X156912673Y-60842474D01*
X156893561Y-60863561D01*
X156872474Y-60882673D01*
X156849615Y-60899626D01*
X156825205Y-60914257D01*
X156799478Y-60926425D01*
X156772683Y-60936013D01*
X156745076Y-60942928D01*
X156716925Y-60947104D01*
X156688500Y-60948500D01*
X154368500Y-60948500D01*
X154340075Y-60947104D01*
X154311924Y-60942928D01*
X154284317Y-60936013D01*
X154257522Y-60926425D01*
X154231795Y-60914257D01*
X154207385Y-60899626D01*
X154184526Y-60882673D01*
X154163439Y-60863561D01*
X154144327Y-60842474D01*
X154127374Y-60819615D01*
X154112743Y-60795205D01*
X154100575Y-60769478D01*
X154090987Y-60742683D01*
X154084072Y-60715076D01*
X154079896Y-60686925D01*
X154078500Y-60658500D01*
X154078500Y-54938500D01*
X154079896Y-54910075D01*
X154084072Y-54881924D01*
X154090987Y-54854317D01*
X154100575Y-54827522D01*
X154112743Y-54801795D01*
X154127374Y-54777385D01*
X154144327Y-54754526D01*
X154163439Y-54733439D01*
X154184526Y-54714327D01*
X154207385Y-54697374D01*
X154231795Y-54682743D01*
X154257522Y-54670575D01*
X154284317Y-54660987D01*
X154311924Y-54654072D01*
X154340075Y-54649896D01*
X154368500Y-54648500D01*
X156688500Y-54648500D01*
X156716925Y-54649896D01*
X156716925Y-54649896D01*
G37*
D11*
X155528500Y-57798500D03*
D10*
G36*
X158406925Y-56339896D02*
G01*
X158435076Y-56344072D01*
X158462683Y-56350987D01*
X158489478Y-56360575D01*
X158515205Y-56372743D01*
X158539615Y-56387374D01*
X158562474Y-56404327D01*
X158583561Y-56423439D01*
X158602673Y-56444526D01*
X158619626Y-56467385D01*
X158634257Y-56491795D01*
X158646425Y-56517522D01*
X158656013Y-56544317D01*
X158662928Y-56571924D01*
X158667104Y-56600075D01*
X158668500Y-56628500D01*
X158668500Y-58948500D01*
X158667104Y-58976925D01*
X158662928Y-59005076D01*
X158656013Y-59032683D01*
X158646425Y-59059478D01*
X158634257Y-59085205D01*
X158619626Y-59109615D01*
X158602673Y-59132474D01*
X158583561Y-59153561D01*
X158562474Y-59172673D01*
X158539615Y-59189626D01*
X158515205Y-59204257D01*
X158489478Y-59216425D01*
X158462683Y-59226013D01*
X158435076Y-59232928D01*
X158406925Y-59237104D01*
X158378500Y-59238500D01*
X152658500Y-59238500D01*
X152630075Y-59237104D01*
X152601924Y-59232928D01*
X152574317Y-59226013D01*
X152547522Y-59216425D01*
X152521795Y-59204257D01*
X152497385Y-59189626D01*
X152474526Y-59172673D01*
X152453439Y-59153561D01*
X152434327Y-59132474D01*
X152417374Y-59109615D01*
X152402743Y-59085205D01*
X152390575Y-59059478D01*
X152380987Y-59032683D01*
X152374072Y-59005076D01*
X152369896Y-58976925D01*
X152368500Y-58948500D01*
X152368500Y-56628500D01*
X152369896Y-56600075D01*
X152374072Y-56571924D01*
X152380987Y-56544317D01*
X152390575Y-56517522D01*
X152402743Y-56491795D01*
X152417374Y-56467385D01*
X152434327Y-56444526D01*
X152453439Y-56423439D01*
X152474526Y-56404327D01*
X152497385Y-56387374D01*
X152521795Y-56372743D01*
X152547522Y-56360575D01*
X152574317Y-56350987D01*
X152601924Y-56344072D01*
X152630075Y-56339896D01*
X152658500Y-56338500D01*
X158378500Y-56338500D01*
X158406925Y-56339896D01*
X158406925Y-56339896D01*
G37*
D11*
X155518500Y-57788500D03*
D10*
G36*
X152943203Y-60339222D02*
G01*
X152957764Y-60341382D01*
X152972043Y-60344959D01*
X152985903Y-60349918D01*
X152999210Y-60356212D01*
X153011836Y-60363780D01*
X153023659Y-60372548D01*
X153034566Y-60382434D01*
X153044452Y-60393341D01*
X153053220Y-60405164D01*
X153060788Y-60417790D01*
X153067082Y-60431097D01*
X153072041Y-60444957D01*
X153075618Y-60459236D01*
X153077778Y-60473797D01*
X153078500Y-60488500D01*
X153078500Y-60788500D01*
X153077778Y-60803203D01*
X153075618Y-60817764D01*
X153072041Y-60832043D01*
X153067082Y-60845903D01*
X153060788Y-60859210D01*
X153053220Y-60871836D01*
X153044452Y-60883659D01*
X153034566Y-60894566D01*
X153023659Y-60904452D01*
X153011836Y-60913220D01*
X152999210Y-60920788D01*
X152985903Y-60927082D01*
X152972043Y-60932041D01*
X152957764Y-60935618D01*
X152943203Y-60937778D01*
X152928500Y-60938500D01*
X152128500Y-60938500D01*
X152113797Y-60937778D01*
X152099236Y-60935618D01*
X152084957Y-60932041D01*
X152071097Y-60927082D01*
X152057790Y-60920788D01*
X152045164Y-60913220D01*
X152033341Y-60904452D01*
X152022434Y-60894566D01*
X152012548Y-60883659D01*
X152003780Y-60871836D01*
X151996212Y-60859210D01*
X151989918Y-60845903D01*
X151984959Y-60832043D01*
X151981382Y-60817764D01*
X151979222Y-60803203D01*
X151978500Y-60788500D01*
X151978500Y-60488500D01*
X151979222Y-60473797D01*
X151981382Y-60459236D01*
X151984959Y-60444957D01*
X151989918Y-60431097D01*
X151996212Y-60417790D01*
X152003780Y-60405164D01*
X152012548Y-60393341D01*
X152022434Y-60382434D01*
X152033341Y-60372548D01*
X152045164Y-60363780D01*
X152057790Y-60356212D01*
X152071097Y-60349918D01*
X152084957Y-60344959D01*
X152099236Y-60341382D01*
X152113797Y-60339222D01*
X152128500Y-60338500D01*
X152928500Y-60338500D01*
X152943203Y-60339222D01*
X152943203Y-60339222D01*
G37*
D12*
X152528500Y-60638500D03*
D10*
G36*
X152843203Y-54259222D02*
G01*
X152857764Y-54261382D01*
X152872043Y-54264959D01*
X152885903Y-54269918D01*
X152899210Y-54276212D01*
X152911836Y-54283780D01*
X152923659Y-54292548D01*
X152934566Y-54302434D01*
X152944452Y-54313341D01*
X152953220Y-54325164D01*
X152960788Y-54337790D01*
X152967082Y-54351097D01*
X152972041Y-54364957D01*
X152975618Y-54379236D01*
X152977778Y-54393797D01*
X152978500Y-54408500D01*
X152978500Y-55208500D01*
X152977778Y-55223203D01*
X152975618Y-55237764D01*
X152972041Y-55252043D01*
X152967082Y-55265903D01*
X152960788Y-55279210D01*
X152953220Y-55291836D01*
X152944452Y-55303659D01*
X152934566Y-55314566D01*
X152923659Y-55324452D01*
X152911836Y-55333220D01*
X152899210Y-55340788D01*
X152885903Y-55347082D01*
X152872043Y-55352041D01*
X152857764Y-55355618D01*
X152843203Y-55357778D01*
X152828500Y-55358500D01*
X152528500Y-55358500D01*
X152513797Y-55357778D01*
X152499236Y-55355618D01*
X152484957Y-55352041D01*
X152471097Y-55347082D01*
X152457790Y-55340788D01*
X152445164Y-55333220D01*
X152433341Y-55324452D01*
X152422434Y-55314566D01*
X152412548Y-55303659D01*
X152403780Y-55291836D01*
X152396212Y-55279210D01*
X152389918Y-55265903D01*
X152384959Y-55252043D01*
X152381382Y-55237764D01*
X152379222Y-55223203D01*
X152378500Y-55208500D01*
X152378500Y-54408500D01*
X152379222Y-54393797D01*
X152381382Y-54379236D01*
X152384959Y-54364957D01*
X152389918Y-54351097D01*
X152396212Y-54337790D01*
X152403780Y-54325164D01*
X152412548Y-54313341D01*
X152422434Y-54302434D01*
X152433341Y-54292548D01*
X152445164Y-54283780D01*
X152457790Y-54276212D01*
X152471097Y-54269918D01*
X152484957Y-54264959D01*
X152499236Y-54261382D01*
X152513797Y-54259222D01*
X152528500Y-54258500D01*
X152828500Y-54258500D01*
X152843203Y-54259222D01*
X152843203Y-54259222D01*
G37*
D12*
X152678500Y-54808500D03*
D10*
G36*
X158953203Y-54639222D02*
G01*
X158967764Y-54641382D01*
X158982043Y-54644959D01*
X158995903Y-54649918D01*
X159009210Y-54656212D01*
X159021836Y-54663780D01*
X159033659Y-54672548D01*
X159044566Y-54682434D01*
X159054452Y-54693341D01*
X159063220Y-54705164D01*
X159070788Y-54717790D01*
X159077082Y-54731097D01*
X159082041Y-54744957D01*
X159085618Y-54759236D01*
X159087778Y-54773797D01*
X159088500Y-54788500D01*
X159088500Y-55088500D01*
X159087778Y-55103203D01*
X159085618Y-55117764D01*
X159082041Y-55132043D01*
X159077082Y-55145903D01*
X159070788Y-55159210D01*
X159063220Y-55171836D01*
X159054452Y-55183659D01*
X159044566Y-55194566D01*
X159033659Y-55204452D01*
X159021836Y-55213220D01*
X159009210Y-55220788D01*
X158995903Y-55227082D01*
X158982043Y-55232041D01*
X158967764Y-55235618D01*
X158953203Y-55237778D01*
X158938500Y-55238500D01*
X158138500Y-55238500D01*
X158123797Y-55237778D01*
X158109236Y-55235618D01*
X158094957Y-55232041D01*
X158081097Y-55227082D01*
X158067790Y-55220788D01*
X158055164Y-55213220D01*
X158043341Y-55204452D01*
X158032434Y-55194566D01*
X158022548Y-55183659D01*
X158013780Y-55171836D01*
X158006212Y-55159210D01*
X157999918Y-55145903D01*
X157994959Y-55132043D01*
X157991382Y-55117764D01*
X157989222Y-55103203D01*
X157988500Y-55088500D01*
X157988500Y-54788500D01*
X157989222Y-54773797D01*
X157991382Y-54759236D01*
X157994959Y-54744957D01*
X157999918Y-54731097D01*
X158006212Y-54717790D01*
X158013780Y-54705164D01*
X158022548Y-54693341D01*
X158032434Y-54682434D01*
X158043341Y-54672548D01*
X158055164Y-54663780D01*
X158067790Y-54656212D01*
X158081097Y-54649918D01*
X158094957Y-54644959D01*
X158109236Y-54641382D01*
X158123797Y-54639222D01*
X158138500Y-54638500D01*
X158938500Y-54638500D01*
X158953203Y-54639222D01*
X158953203Y-54639222D01*
G37*
D12*
X158538500Y-54938500D03*
D10*
G36*
X158553203Y-60239222D02*
G01*
X158567764Y-60241382D01*
X158582043Y-60244959D01*
X158595903Y-60249918D01*
X158609210Y-60256212D01*
X158621836Y-60263780D01*
X158633659Y-60272548D01*
X158644566Y-60282434D01*
X158654452Y-60293341D01*
X158663220Y-60305164D01*
X158670788Y-60317790D01*
X158677082Y-60331097D01*
X158682041Y-60344957D01*
X158685618Y-60359236D01*
X158687778Y-60373797D01*
X158688500Y-60388500D01*
X158688500Y-61188500D01*
X158687778Y-61203203D01*
X158685618Y-61217764D01*
X158682041Y-61232043D01*
X158677082Y-61245903D01*
X158670788Y-61259210D01*
X158663220Y-61271836D01*
X158654452Y-61283659D01*
X158644566Y-61294566D01*
X158633659Y-61304452D01*
X158621836Y-61313220D01*
X158609210Y-61320788D01*
X158595903Y-61327082D01*
X158582043Y-61332041D01*
X158567764Y-61335618D01*
X158553203Y-61337778D01*
X158538500Y-61338500D01*
X158238500Y-61338500D01*
X158223797Y-61337778D01*
X158209236Y-61335618D01*
X158194957Y-61332041D01*
X158181097Y-61327082D01*
X158167790Y-61320788D01*
X158155164Y-61313220D01*
X158143341Y-61304452D01*
X158132434Y-61294566D01*
X158122548Y-61283659D01*
X158113780Y-61271836D01*
X158106212Y-61259210D01*
X158099918Y-61245903D01*
X158094959Y-61232043D01*
X158091382Y-61217764D01*
X158089222Y-61203203D01*
X158088500Y-61188500D01*
X158088500Y-60388500D01*
X158089222Y-60373797D01*
X158091382Y-60359236D01*
X158094959Y-60344957D01*
X158099918Y-60331097D01*
X158106212Y-60317790D01*
X158113780Y-60305164D01*
X158122548Y-60293341D01*
X158132434Y-60282434D01*
X158143341Y-60272548D01*
X158155164Y-60263780D01*
X158167790Y-60256212D01*
X158181097Y-60249918D01*
X158194957Y-60244959D01*
X158209236Y-60241382D01*
X158223797Y-60239222D01*
X158238500Y-60238500D01*
X158538500Y-60238500D01*
X158553203Y-60239222D01*
X158553203Y-60239222D01*
G37*
D12*
X158388500Y-60788500D03*
D13*
X185808620Y-48145700D03*
X185808620Y-58305700D03*
D14*
X180728620Y-53225700D03*
X180728620Y-50685700D03*
D10*
G36*
X150080505Y-60123204D02*
G01*
X150104773Y-60126804D01*
X150128572Y-60132765D01*
X150151671Y-60141030D01*
X150173850Y-60151520D01*
X150194893Y-60164132D01*
X150214599Y-60178747D01*
X150232777Y-60195223D01*
X150249253Y-60213401D01*
X150263868Y-60233107D01*
X150276480Y-60254150D01*
X150286970Y-60276329D01*
X150295235Y-60299428D01*
X150301196Y-60323227D01*
X150304796Y-60347495D01*
X150306000Y-60371999D01*
X150306000Y-61022001D01*
X150304796Y-61046505D01*
X150301196Y-61070773D01*
X150295235Y-61094572D01*
X150286970Y-61117671D01*
X150276480Y-61139850D01*
X150263868Y-61160893D01*
X150249253Y-61180599D01*
X150232777Y-61198777D01*
X150214599Y-61215253D01*
X150194893Y-61229868D01*
X150173850Y-61242480D01*
X150151671Y-61252970D01*
X150128572Y-61261235D01*
X150104773Y-61267196D01*
X150080505Y-61270796D01*
X150056001Y-61272000D01*
X149155999Y-61272000D01*
X149131495Y-61270796D01*
X149107227Y-61267196D01*
X149083428Y-61261235D01*
X149060329Y-61252970D01*
X149038150Y-61242480D01*
X149017107Y-61229868D01*
X148997401Y-61215253D01*
X148979223Y-61198777D01*
X148962747Y-61180599D01*
X148948132Y-61160893D01*
X148935520Y-61139850D01*
X148925030Y-61117671D01*
X148916765Y-61094572D01*
X148910804Y-61070773D01*
X148907204Y-61046505D01*
X148906000Y-61022001D01*
X148906000Y-60371999D01*
X148907204Y-60347495D01*
X148910804Y-60323227D01*
X148916765Y-60299428D01*
X148925030Y-60276329D01*
X148935520Y-60254150D01*
X148948132Y-60233107D01*
X148962747Y-60213401D01*
X148979223Y-60195223D01*
X148997401Y-60178747D01*
X149017107Y-60164132D01*
X149038150Y-60151520D01*
X149060329Y-60141030D01*
X149083428Y-60132765D01*
X149107227Y-60126804D01*
X149131495Y-60123204D01*
X149155999Y-60122000D01*
X150056001Y-60122000D01*
X150080505Y-60123204D01*
X150080505Y-60123204D01*
G37*
D15*
X149606000Y-60697000D03*
D10*
G36*
X150080505Y-62173204D02*
G01*
X150104773Y-62176804D01*
X150128572Y-62182765D01*
X150151671Y-62191030D01*
X150173850Y-62201520D01*
X150194893Y-62214132D01*
X150214599Y-62228747D01*
X150232777Y-62245223D01*
X150249253Y-62263401D01*
X150263868Y-62283107D01*
X150276480Y-62304150D01*
X150286970Y-62326329D01*
X150295235Y-62349428D01*
X150301196Y-62373227D01*
X150304796Y-62397495D01*
X150306000Y-62421999D01*
X150306000Y-63072001D01*
X150304796Y-63096505D01*
X150301196Y-63120773D01*
X150295235Y-63144572D01*
X150286970Y-63167671D01*
X150276480Y-63189850D01*
X150263868Y-63210893D01*
X150249253Y-63230599D01*
X150232777Y-63248777D01*
X150214599Y-63265253D01*
X150194893Y-63279868D01*
X150173850Y-63292480D01*
X150151671Y-63302970D01*
X150128572Y-63311235D01*
X150104773Y-63317196D01*
X150080505Y-63320796D01*
X150056001Y-63322000D01*
X149155999Y-63322000D01*
X149131495Y-63320796D01*
X149107227Y-63317196D01*
X149083428Y-63311235D01*
X149060329Y-63302970D01*
X149038150Y-63292480D01*
X149017107Y-63279868D01*
X148997401Y-63265253D01*
X148979223Y-63248777D01*
X148962747Y-63230599D01*
X148948132Y-63210893D01*
X148935520Y-63189850D01*
X148925030Y-63167671D01*
X148916765Y-63144572D01*
X148910804Y-63120773D01*
X148907204Y-63096505D01*
X148906000Y-63072001D01*
X148906000Y-62421999D01*
X148907204Y-62397495D01*
X148910804Y-62373227D01*
X148916765Y-62349428D01*
X148925030Y-62326329D01*
X148935520Y-62304150D01*
X148948132Y-62283107D01*
X148962747Y-62263401D01*
X148979223Y-62245223D01*
X148997401Y-62228747D01*
X149017107Y-62214132D01*
X149038150Y-62201520D01*
X149060329Y-62191030D01*
X149083428Y-62182765D01*
X149107227Y-62176804D01*
X149131495Y-62173204D01*
X149155999Y-62172000D01*
X150056001Y-62172000D01*
X150080505Y-62173204D01*
X150080505Y-62173204D01*
G37*
D15*
X149606000Y-62747000D03*
D16*
X179070000Y-21082000D03*
D17*
X184150000Y-21082000D03*
D16*
X163568380Y-21503640D03*
D17*
X168648380Y-21503640D03*
X155191460Y-21600160D03*
D16*
X150111460Y-21600160D03*
D18*
X151980900Y-61417200D03*
X152028500Y-59807500D03*
X143306800Y-55880000D03*
X167513000Y-41910000D03*
X171460160Y-46339760D03*
X164615211Y-52939995D03*
X171958000Y-42926000D03*
X174752000Y-42672000D03*
X180848000Y-42672000D03*
X183896000Y-36576000D03*
X150114000Y-41402000D03*
X144780000Y-41402000D03*
X152871500Y-34253500D03*
X153111200Y-46278800D03*
X141732000Y-44704000D03*
X164909500Y-64168020D03*
X161564320Y-57597040D03*
X177000000Y-55250000D03*
X163621720Y-57541160D03*
X140936980Y-33794700D03*
X142788640Y-33794700D03*
X140975080Y-35372040D03*
X142788640Y-35410140D03*
X140896340Y-36870640D03*
X142514320Y-36987480D03*
X163385500Y-60657740D03*
X170688000Y-56388000D03*
X169164000Y-49784000D03*
X160858560Y-54950000D03*
X158688000Y-54144500D03*
D19*
X152028500Y-60638500D02*
X152028500Y-59807500D01*
D20*
X152028500Y-61369600D02*
X151980900Y-61417200D01*
D19*
X152028500Y-60638500D02*
X152028500Y-61369600D01*
D21*
X151970000Y-60697000D02*
X152028500Y-60638500D01*
X149606000Y-60697000D02*
X151970000Y-60697000D01*
D19*
X151384000Y-34798000D02*
X151384000Y-34544000D01*
D22*
X157988500Y-60788500D02*
X156933900Y-61843100D01*
X158388500Y-60788500D02*
X157988500Y-60788500D01*
X151798102Y-62747000D02*
X150406000Y-62747000D01*
X150406000Y-62747000D02*
X149606000Y-62747000D01*
X156933900Y-61843100D02*
X152702002Y-61843100D01*
X152702002Y-61843100D02*
X151798102Y-62747000D01*
X148982628Y-62123628D02*
X148785888Y-62123628D01*
X149606000Y-62747000D02*
X148982628Y-62123628D01*
X148785888Y-62123628D02*
X146194780Y-59532520D01*
D23*
X148141170Y-65522010D02*
X158521230Y-65522010D01*
X139131999Y-56512839D02*
X148141170Y-65522010D01*
X142514320Y-36987480D02*
X139131999Y-40369801D01*
X139131999Y-40369801D02*
X139131999Y-56512839D01*
X158521230Y-65522010D02*
X163385500Y-60657740D01*
X163385500Y-60657740D02*
X163385500Y-60657740D01*
X142514320Y-36987480D02*
X142514320Y-35036760D01*
D24*
X170288001Y-55988001D02*
X170288001Y-50654001D01*
X170688000Y-56388000D02*
X170288001Y-55988001D01*
X170288001Y-50654001D02*
X169418000Y-49784000D01*
X169418000Y-49784000D02*
X169164000Y-49784000D01*
D21*
X160847060Y-54938500D02*
X160858560Y-54950000D01*
X158538500Y-54938500D02*
X160847060Y-54938500D01*
X158538500Y-54938500D02*
X158538500Y-54144500D01*
X158538500Y-54144500D02*
X158688000Y-54144500D01*
D25*
G36*
X193088884Y-67854881D02*
G01*
X193085857Y-68603546D01*
X134674962Y-68628376D01*
X134665154Y-67598737D01*
X134664847Y-64463512D01*
X136659820Y-64463512D01*
X136659820Y-64903768D01*
X136745710Y-65335565D01*
X136914189Y-65742309D01*
X137158782Y-66108369D01*
X137470091Y-66419678D01*
X137836151Y-66664271D01*
X138242895Y-66832750D01*
X138674692Y-66918640D01*
X139114948Y-66918640D01*
X139546745Y-66832750D01*
X139953489Y-66664271D01*
X140319549Y-66419678D01*
X140630858Y-66108369D01*
X140875451Y-65742309D01*
X141043930Y-65335565D01*
X141129820Y-64903768D01*
X141129820Y-64463512D01*
X141043930Y-64031715D01*
X140875451Y-63624971D01*
X140630858Y-63258911D01*
X140319549Y-62947602D01*
X139953489Y-62703009D01*
X139546745Y-62534530D01*
X139114948Y-62448640D01*
X138674692Y-62448640D01*
X138242895Y-62534530D01*
X137836151Y-62703009D01*
X137470091Y-62947602D01*
X137158782Y-63258911D01*
X136914189Y-63624971D01*
X136745710Y-64031715D01*
X136659820Y-64463512D01*
X134664847Y-64463512D01*
X134662486Y-40369801D01*
X136484251Y-40369801D01*
X136496999Y-40499235D01*
X136497000Y-56383395D01*
X136484251Y-56512839D01*
X136535126Y-57029388D01*
X136685798Y-57526088D01*
X136685799Y-57526089D01*
X136930477Y-57983850D01*
X137259759Y-58385080D01*
X137360301Y-58467593D01*
X146186412Y-67293704D01*
X146268929Y-67394251D01*
X146670159Y-67723533D01*
X147127920Y-67968211D01*
X147624620Y-68118883D01*
X148011728Y-68157010D01*
X148011736Y-68157010D01*
X148141170Y-68169758D01*
X148270604Y-68157010D01*
X158391796Y-68157010D01*
X158521230Y-68169758D01*
X158650664Y-68157010D01*
X158650672Y-68157010D01*
X159037780Y-68118883D01*
X159534480Y-67968211D01*
X159992241Y-67723533D01*
X160393471Y-67394251D01*
X160475988Y-67293704D01*
X162915020Y-64854672D01*
X187269320Y-64854672D01*
X187269320Y-65294928D01*
X187355210Y-65726725D01*
X187523689Y-66133469D01*
X187768282Y-66499529D01*
X188079591Y-66810838D01*
X188445651Y-67055431D01*
X188852395Y-67223910D01*
X189284192Y-67309800D01*
X189724448Y-67309800D01*
X190156245Y-67223910D01*
X190562989Y-67055431D01*
X190929049Y-66810838D01*
X191240358Y-66499529D01*
X191484951Y-66133469D01*
X191653430Y-65726725D01*
X191739320Y-65294928D01*
X191739320Y-64854672D01*
X191653430Y-64422875D01*
X191484951Y-64016131D01*
X191240358Y-63650071D01*
X190929049Y-63338762D01*
X190562989Y-63094169D01*
X190156245Y-62925690D01*
X189724448Y-62839800D01*
X189284192Y-62839800D01*
X188852395Y-62925690D01*
X188445651Y-63094169D01*
X188079591Y-63338762D01*
X187768282Y-63650071D01*
X187523689Y-64016131D01*
X187355210Y-64422875D01*
X187269320Y-64854672D01*
X162915020Y-64854672D01*
X165157194Y-62612498D01*
X165257741Y-62529981D01*
X165587023Y-62128751D01*
X165831701Y-61670990D01*
X165982373Y-61174290D01*
X166033249Y-60657740D01*
X165982373Y-60141190D01*
X165831701Y-59644490D01*
X165587023Y-59186729D01*
X165272681Y-58803703D01*
X181726193Y-58803703D01*
X181806567Y-59101068D01*
X182005008Y-59525139D01*
X182282368Y-59902348D01*
X182627989Y-60218198D01*
X183028588Y-60460552D01*
X183468770Y-60620096D01*
X183931620Y-60690700D01*
X185681620Y-60690700D01*
X185681620Y-58432700D01*
X185935620Y-58432700D01*
X185935620Y-60690700D01*
X187685620Y-60690700D01*
X188148470Y-60620096D01*
X188588652Y-60460552D01*
X188989251Y-60218198D01*
X189334872Y-59902348D01*
X189612232Y-59525139D01*
X189810673Y-59101068D01*
X189891047Y-58803703D01*
X189781245Y-58432700D01*
X185935620Y-58432700D01*
X185681620Y-58432700D01*
X181835995Y-58432700D01*
X181726193Y-58803703D01*
X165272681Y-58803703D01*
X165257741Y-58785499D01*
X164856511Y-58456217D01*
X164409374Y-58217217D01*
X164425657Y-58200934D01*
X164538925Y-58031416D01*
X164616946Y-57843058D01*
X164623979Y-57807697D01*
X181726193Y-57807697D01*
X181835995Y-58178700D01*
X185681620Y-58178700D01*
X185681620Y-58158700D01*
X185935620Y-58158700D01*
X185935620Y-58178700D01*
X189781245Y-58178700D01*
X189891047Y-57807697D01*
X189810673Y-57510332D01*
X189612232Y-57086261D01*
X189334872Y-56709052D01*
X188989251Y-56393202D01*
X188588652Y-56150848D01*
X188148470Y-55991304D01*
X187685620Y-55920700D01*
X183931620Y-55920700D01*
X183468770Y-55991304D01*
X183028588Y-56150848D01*
X182627989Y-56393202D01*
X182282368Y-56709052D01*
X182005008Y-57086261D01*
X181806567Y-57510332D01*
X181726193Y-57807697D01*
X164623979Y-57807697D01*
X164656720Y-57643099D01*
X164656720Y-57439221D01*
X164616946Y-57239262D01*
X164538925Y-57050904D01*
X164425657Y-56881386D01*
X164281494Y-56737223D01*
X164111976Y-56623955D01*
X163923618Y-56545934D01*
X163723659Y-56506160D01*
X163519781Y-56506160D01*
X163319822Y-56545934D01*
X163131464Y-56623955D01*
X162961946Y-56737223D01*
X162817783Y-56881386D01*
X162704515Y-57050904D01*
X162626494Y-57239262D01*
X162586720Y-57439221D01*
X162586720Y-57643099D01*
X162626494Y-57843058D01*
X162704515Y-58031416D01*
X162748589Y-58097378D01*
X162372250Y-58211539D01*
X161914489Y-58456217D01*
X161513259Y-58785499D01*
X161430742Y-58886046D01*
X159283019Y-61033769D01*
X159164750Y-60915500D01*
X158515500Y-60915500D01*
X158515500Y-60935500D01*
X158261500Y-60935500D01*
X158261500Y-60915500D01*
X158241500Y-60915500D01*
X158241500Y-60661500D01*
X158261500Y-60661500D01*
X158261500Y-60641500D01*
X158515500Y-60641500D01*
X158515500Y-60661500D01*
X159164750Y-60661500D01*
X159323500Y-60502750D01*
X159326572Y-60238500D01*
X159314312Y-60114018D01*
X159278002Y-59994320D01*
X159219037Y-59884006D01*
X159139685Y-59787315D01*
X159042994Y-59707963D01*
X158961836Y-59664582D01*
X159034746Y-59604746D01*
X159150164Y-59464109D01*
X159235927Y-59303658D01*
X159288739Y-59129558D01*
X159306572Y-58948500D01*
X159306572Y-56628500D01*
X159288739Y-56447442D01*
X159235927Y-56273342D01*
X159150164Y-56112891D01*
X159034746Y-55972254D01*
X158918157Y-55876572D01*
X158938500Y-55876572D01*
X159092245Y-55861429D01*
X159240082Y-55816584D01*
X159376329Y-55743758D01*
X159401013Y-55723500D01*
X160168349Y-55723500D01*
X160198786Y-55753937D01*
X160368304Y-55867205D01*
X160556662Y-55945226D01*
X160756621Y-55985000D01*
X160960499Y-55985000D01*
X161160458Y-55945226D01*
X161348816Y-55867205D01*
X161518334Y-55753937D01*
X161662497Y-55609774D01*
X161775765Y-55440256D01*
X161853786Y-55251898D01*
X161893560Y-55051939D01*
X161893560Y-54848061D01*
X161853786Y-54648102D01*
X161775765Y-54459744D01*
X161662497Y-54290226D01*
X161518334Y-54146063D01*
X161348816Y-54032795D01*
X161160458Y-53954774D01*
X160960499Y-53915000D01*
X160756621Y-53915000D01*
X160556662Y-53954774D01*
X160368304Y-54032795D01*
X160198786Y-54146063D01*
X160191349Y-54153500D01*
X159723000Y-54153500D01*
X159723000Y-54042561D01*
X159683226Y-53842602D01*
X159605205Y-53654244D01*
X159491937Y-53484726D01*
X159347774Y-53340563D01*
X159178256Y-53227295D01*
X158989898Y-53149274D01*
X158789939Y-53109500D01*
X158586061Y-53109500D01*
X158386102Y-53149274D01*
X158197744Y-53227295D01*
X158028226Y-53340563D01*
X157884063Y-53484726D01*
X157770795Y-53654244D01*
X157692774Y-53842602D01*
X157653000Y-54042561D01*
X157653000Y-54172365D01*
X157581249Y-54231249D01*
X157483242Y-54350671D01*
X157450763Y-54411435D01*
X157344746Y-54282254D01*
X157204109Y-54166836D01*
X157043658Y-54081073D01*
X156869558Y-54028261D01*
X156688500Y-54010428D01*
X154368500Y-54010428D01*
X154187442Y-54028261D01*
X154013342Y-54081073D01*
X153852891Y-54166836D01*
X153712254Y-54282254D01*
X153615723Y-54399877D01*
X153601429Y-54254755D01*
X153556584Y-54106918D01*
X153483758Y-53970671D01*
X153385751Y-53851249D01*
X153266329Y-53753242D01*
X153130082Y-53680416D01*
X152982245Y-53635571D01*
X152828500Y-53620428D01*
X152528500Y-53620428D01*
X152374755Y-53635571D01*
X152226918Y-53680416D01*
X152090671Y-53753242D01*
X151971249Y-53851249D01*
X151873242Y-53970671D01*
X151800416Y-54106918D01*
X151755571Y-54254755D01*
X151740428Y-54408500D01*
X151740428Y-55208500D01*
X151755571Y-55362245D01*
X151800416Y-55510082D01*
X151873242Y-55646329D01*
X151971249Y-55765751D01*
X152090671Y-55863758D01*
X152117187Y-55877931D01*
X152002254Y-55972254D01*
X151886836Y-56112891D01*
X151801073Y-56273342D01*
X151748261Y-56447442D01*
X151730428Y-56628500D01*
X151730428Y-58811513D01*
X151726602Y-58812274D01*
X151538244Y-58890295D01*
X151368726Y-59003563D01*
X151224563Y-59147726D01*
X151111295Y-59317244D01*
X151033274Y-59505602D01*
X150993500Y-59705561D01*
X150993500Y-59909439D01*
X150994009Y-59912000D01*
X150812251Y-59912000D01*
X150794405Y-59878613D01*
X150683962Y-59744038D01*
X150549387Y-59633595D01*
X150395851Y-59551528D01*
X150229255Y-59500992D01*
X150056001Y-59483928D01*
X149155999Y-59483928D01*
X148982745Y-59500992D01*
X148816149Y-59551528D01*
X148662613Y-59633595D01*
X148528038Y-59744038D01*
X148417595Y-59878613D01*
X148335528Y-60032149D01*
X148284992Y-60198745D01*
X148267928Y-60371999D01*
X148267928Y-61022001D01*
X148284992Y-61195255D01*
X148335528Y-61361851D01*
X148417595Y-61515387D01*
X148528038Y-61649962D01*
X148534594Y-61655342D01*
X148454815Y-61720815D01*
X148375463Y-61817506D01*
X148316498Y-61927820D01*
X148306475Y-61960863D01*
X141766999Y-55421387D01*
X141766999Y-52838056D01*
X163580211Y-52838056D01*
X163580211Y-53041934D01*
X163619985Y-53241893D01*
X163698006Y-53430251D01*
X163811274Y-53599769D01*
X163955437Y-53743932D01*
X164124955Y-53857200D01*
X164313313Y-53935221D01*
X164513272Y-53974995D01*
X164717150Y-53974995D01*
X164917109Y-53935221D01*
X165105467Y-53857200D01*
X165274985Y-53743932D01*
X165419148Y-53599769D01*
X165532416Y-53430251D01*
X165610437Y-53241893D01*
X165650211Y-53041934D01*
X165650211Y-52838056D01*
X165610437Y-52638097D01*
X165532416Y-52449739D01*
X165419148Y-52280221D01*
X165274985Y-52136058D01*
X165105467Y-52022790D01*
X164917109Y-51944769D01*
X164717150Y-51904995D01*
X164513272Y-51904995D01*
X164313313Y-51944769D01*
X164124955Y-52022790D01*
X163955437Y-52136058D01*
X163811274Y-52280221D01*
X163698006Y-52449739D01*
X163619985Y-52638097D01*
X163580211Y-52838056D01*
X141766999Y-52838056D01*
X141766999Y-49682061D01*
X168129000Y-49682061D01*
X168129000Y-49885939D01*
X168168774Y-50085898D01*
X168246795Y-50274256D01*
X168360063Y-50443774D01*
X168504226Y-50587937D01*
X168673744Y-50701205D01*
X168862102Y-50779226D01*
X169062061Y-50819000D01*
X169265939Y-50819000D01*
X169359574Y-50800375D01*
X169528002Y-50968804D01*
X169528001Y-55950678D01*
X169524325Y-55988001D01*
X169528001Y-56025323D01*
X169528001Y-56025333D01*
X169538998Y-56136986D01*
X169580360Y-56273342D01*
X169582455Y-56280247D01*
X169653000Y-56412226D01*
X169653000Y-56489939D01*
X169692774Y-56689898D01*
X169770795Y-56878256D01*
X169884063Y-57047774D01*
X170028226Y-57191937D01*
X170197744Y-57305205D01*
X170386102Y-57383226D01*
X170586061Y-57423000D01*
X170789939Y-57423000D01*
X170989898Y-57383226D01*
X171178256Y-57305205D01*
X171347774Y-57191937D01*
X171491937Y-57047774D01*
X171605205Y-56878256D01*
X171683226Y-56689898D01*
X171723000Y-56489939D01*
X171723000Y-56286061D01*
X171683226Y-56086102D01*
X171605205Y-55897744D01*
X171491937Y-55728226D01*
X171347774Y-55584063D01*
X171178256Y-55470795D01*
X171048001Y-55416841D01*
X171048001Y-53225700D01*
X178836677Y-53225700D01*
X178864384Y-53507009D01*
X178946438Y-53777508D01*
X179079688Y-54026801D01*
X179259012Y-54245308D01*
X179477519Y-54424632D01*
X179726812Y-54557882D01*
X179997311Y-54639936D01*
X180208128Y-54660700D01*
X181249112Y-54660700D01*
X181459929Y-54639936D01*
X181730428Y-54557882D01*
X181979721Y-54424632D01*
X182198228Y-54245308D01*
X182377552Y-54026801D01*
X182510802Y-53777508D01*
X182592856Y-53507009D01*
X182620563Y-53225700D01*
X182592856Y-52944391D01*
X182510802Y-52673892D01*
X182377552Y-52424599D01*
X182198228Y-52206092D01*
X181979721Y-52026768D01*
X181851879Y-51958435D01*
X182081459Y-51808301D01*
X182283120Y-51610595D01*
X182442335Y-51377346D01*
X182552987Y-51117518D01*
X182570524Y-51034739D01*
X182448535Y-50812700D01*
X180855620Y-50812700D01*
X180855620Y-50832700D01*
X180601620Y-50832700D01*
X180601620Y-50812700D01*
X179008705Y-50812700D01*
X178886716Y-51034739D01*
X178904253Y-51117518D01*
X179014905Y-51377346D01*
X179174120Y-51610595D01*
X179375781Y-51808301D01*
X179605361Y-51958435D01*
X179477519Y-52026768D01*
X179259012Y-52206092D01*
X179079688Y-52424599D01*
X178946438Y-52673892D01*
X178864384Y-52944391D01*
X178836677Y-53225700D01*
X171048001Y-53225700D01*
X171048001Y-50691323D01*
X171051677Y-50654000D01*
X171048001Y-50616677D01*
X171048001Y-50616668D01*
X171037004Y-50505015D01*
X170993547Y-50361754D01*
X170980135Y-50336661D01*
X178886716Y-50336661D01*
X179008705Y-50558700D01*
X180601620Y-50558700D01*
X180601620Y-50538700D01*
X180855620Y-50538700D01*
X180855620Y-50558700D01*
X182448535Y-50558700D01*
X182570524Y-50336661D01*
X182552987Y-50253882D01*
X182442335Y-49994054D01*
X182283120Y-49760805D01*
X182081459Y-49563099D01*
X181845103Y-49408534D01*
X181583134Y-49303050D01*
X181305620Y-49250700D01*
X180151620Y-49250700D01*
X179874106Y-49303050D01*
X179612137Y-49408534D01*
X179375781Y-49563099D01*
X179174120Y-49760805D01*
X179014905Y-49994054D01*
X178904253Y-50253882D01*
X178886716Y-50336661D01*
X170980135Y-50336661D01*
X170922975Y-50229725D01*
X170828002Y-50114000D01*
X170799004Y-50090202D01*
X170136827Y-49428025D01*
X170081205Y-49293744D01*
X169967937Y-49124226D01*
X169823774Y-48980063D01*
X169654256Y-48866795D01*
X169465898Y-48788774D01*
X169265939Y-48749000D01*
X169062061Y-48749000D01*
X168862102Y-48788774D01*
X168673744Y-48866795D01*
X168504226Y-48980063D01*
X168360063Y-49124226D01*
X168246795Y-49293744D01*
X168168774Y-49482102D01*
X168129000Y-49682061D01*
X141766999Y-49682061D01*
X141766999Y-48643703D01*
X181726193Y-48643703D01*
X181806567Y-48941068D01*
X182005008Y-49365139D01*
X182282368Y-49742348D01*
X182627989Y-50058198D01*
X183028588Y-50300552D01*
X183468770Y-50460096D01*
X183931620Y-50530700D01*
X185681620Y-50530700D01*
X185681620Y-48272700D01*
X185935620Y-48272700D01*
X185935620Y-50530700D01*
X187685620Y-50530700D01*
X188148470Y-50460096D01*
X188588652Y-50300552D01*
X188989251Y-50058198D01*
X189334872Y-49742348D01*
X189612232Y-49365139D01*
X189810673Y-48941068D01*
X189891047Y-48643703D01*
X189781245Y-48272700D01*
X185935620Y-48272700D01*
X185681620Y-48272700D01*
X181835995Y-48272700D01*
X181726193Y-48643703D01*
X141766999Y-48643703D01*
X141766999Y-47647697D01*
X181726193Y-47647697D01*
X181835995Y-48018700D01*
X185681620Y-48018700D01*
X185681620Y-47998700D01*
X185935620Y-47998700D01*
X185935620Y-48018700D01*
X189781245Y-48018700D01*
X189891047Y-47647697D01*
X189810673Y-47350332D01*
X189612232Y-46926261D01*
X189334872Y-46549052D01*
X188989251Y-46233202D01*
X188588652Y-45990848D01*
X188148470Y-45831304D01*
X187685620Y-45760700D01*
X183931620Y-45760700D01*
X183468770Y-45831304D01*
X183028588Y-45990848D01*
X182627989Y-46233202D01*
X182282368Y-46549052D01*
X182005008Y-46926261D01*
X181806567Y-47350332D01*
X181726193Y-47647697D01*
X141766999Y-47647697D01*
X141766999Y-41461253D01*
X144286020Y-38942233D01*
X144386561Y-38859721D01*
X144715843Y-38458491D01*
X144960521Y-38000730D01*
X144989656Y-37904685D01*
X145111193Y-37504031D01*
X145116266Y-37452522D01*
X145149320Y-37116922D01*
X145149320Y-37116915D01*
X145162068Y-36987481D01*
X145149320Y-36858047D01*
X145149320Y-34907319D01*
X145111193Y-34520210D01*
X144960521Y-34023510D01*
X144715843Y-33565749D01*
X144386561Y-33164519D01*
X143985331Y-32835237D01*
X143527570Y-32590559D01*
X143030870Y-32439887D01*
X142514320Y-32389011D01*
X141997771Y-32439887D01*
X141501071Y-32590559D01*
X141145112Y-32780823D01*
X141038919Y-32759700D01*
X140835041Y-32759700D01*
X140635082Y-32799474D01*
X140446724Y-32877495D01*
X140277206Y-32990763D01*
X140133043Y-33134926D01*
X140019775Y-33304444D01*
X139941754Y-33492802D01*
X139901980Y-33692761D01*
X139901980Y-33896639D01*
X139941754Y-34096598D01*
X140001901Y-34241804D01*
X139917447Y-34520210D01*
X139879320Y-34907318D01*
X139879320Y-35896027D01*
X137360305Y-38415043D01*
X137259758Y-38497560D01*
X136930476Y-38898791D01*
X136685798Y-39356552D01*
X136535126Y-39853252D01*
X136496999Y-40240360D01*
X136496999Y-40240367D01*
X136484251Y-40369801D01*
X134662486Y-40369801D01*
X134661510Y-30397032D01*
X187485220Y-30397032D01*
X187485220Y-30837288D01*
X187571110Y-31269085D01*
X187739589Y-31675829D01*
X187984182Y-32041889D01*
X188295491Y-32353198D01*
X188661551Y-32597791D01*
X189068295Y-32766270D01*
X189500092Y-32852160D01*
X189940348Y-32852160D01*
X190372145Y-32766270D01*
X190778889Y-32597791D01*
X191144949Y-32353198D01*
X191456258Y-32041889D01*
X191700851Y-31675829D01*
X191869330Y-31269085D01*
X191955220Y-30837288D01*
X191955220Y-30397032D01*
X191869330Y-29965235D01*
X191700851Y-29558491D01*
X191456258Y-29192431D01*
X191144949Y-28881122D01*
X190778889Y-28636529D01*
X190372145Y-28468050D01*
X189940348Y-28382160D01*
X189500092Y-28382160D01*
X189068295Y-28468050D01*
X188661551Y-28636529D01*
X188295491Y-28881122D01*
X187984182Y-29192431D01*
X187739589Y-29558491D01*
X187571110Y-29965235D01*
X187485220Y-30397032D01*
X134661510Y-30397032D01*
X134660550Y-20607872D01*
X136703000Y-20607872D01*
X136703000Y-21048128D01*
X136788890Y-21479925D01*
X136957369Y-21886669D01*
X137201962Y-22252729D01*
X137513271Y-22564038D01*
X137879331Y-22808631D01*
X138286075Y-22977110D01*
X138717872Y-23063000D01*
X139158128Y-23063000D01*
X139589925Y-22977110D01*
X139996669Y-22808631D01*
X140362729Y-22564038D01*
X140674038Y-22252729D01*
X140918631Y-21886669D01*
X141087110Y-21479925D01*
X141101102Y-21409579D01*
X148176460Y-21409579D01*
X148176460Y-21790741D01*
X148250821Y-22164579D01*
X148396685Y-22516726D01*
X148608447Y-22833651D01*
X148877969Y-23103173D01*
X149194894Y-23314935D01*
X149547041Y-23460799D01*
X149920879Y-23535160D01*
X150302041Y-23535160D01*
X150675879Y-23460799D01*
X151028026Y-23314935D01*
X151344951Y-23103173D01*
X151547964Y-22900160D01*
X153253388Y-22900160D01*
X153265648Y-23024642D01*
X153301958Y-23144340D01*
X153360923Y-23254654D01*
X153440275Y-23351345D01*
X153536966Y-23430697D01*
X153647280Y-23489662D01*
X153766978Y-23525972D01*
X153891460Y-23538232D01*
X154905710Y-23535160D01*
X155064460Y-23376410D01*
X155064460Y-21727160D01*
X155318460Y-21727160D01*
X155318460Y-23376410D01*
X155477210Y-23535160D01*
X156491460Y-23538232D01*
X156615942Y-23525972D01*
X156735640Y-23489662D01*
X156845954Y-23430697D01*
X156942645Y-23351345D01*
X157021997Y-23254654D01*
X157080962Y-23144340D01*
X157117272Y-23024642D01*
X157129532Y-22900160D01*
X157126460Y-21885910D01*
X156967710Y-21727160D01*
X155318460Y-21727160D01*
X155064460Y-21727160D01*
X153415210Y-21727160D01*
X153256460Y-21885910D01*
X153253388Y-22900160D01*
X151547964Y-22900160D01*
X151614473Y-22833651D01*
X151826235Y-22516726D01*
X151972099Y-22164579D01*
X152046460Y-21790741D01*
X152046460Y-21409579D01*
X151972099Y-21035741D01*
X151826235Y-20683594D01*
X151614473Y-20366669D01*
X151547964Y-20300160D01*
X153253388Y-20300160D01*
X153256460Y-21314410D01*
X153415210Y-21473160D01*
X155064460Y-21473160D01*
X155064460Y-19823910D01*
X155318460Y-19823910D01*
X155318460Y-21473160D01*
X156967710Y-21473160D01*
X157126460Y-21314410D01*
X157126464Y-21313059D01*
X161633380Y-21313059D01*
X161633380Y-21694221D01*
X161707741Y-22068059D01*
X161853605Y-22420206D01*
X162065367Y-22737131D01*
X162334889Y-23006653D01*
X162651814Y-23218415D01*
X163003961Y-23364279D01*
X163377799Y-23438640D01*
X163758961Y-23438640D01*
X164132799Y-23364279D01*
X164484946Y-23218415D01*
X164801871Y-23006653D01*
X165004884Y-22803640D01*
X166710308Y-22803640D01*
X166722568Y-22928122D01*
X166758878Y-23047820D01*
X166817843Y-23158134D01*
X166897195Y-23254825D01*
X166993886Y-23334177D01*
X167104200Y-23393142D01*
X167223898Y-23429452D01*
X167348380Y-23441712D01*
X168362630Y-23438640D01*
X168521380Y-23279890D01*
X168521380Y-21630640D01*
X168775380Y-21630640D01*
X168775380Y-23279890D01*
X168934130Y-23438640D01*
X169948380Y-23441712D01*
X170072862Y-23429452D01*
X170192560Y-23393142D01*
X170302874Y-23334177D01*
X170399565Y-23254825D01*
X170478917Y-23158134D01*
X170537882Y-23047820D01*
X170574192Y-22928122D01*
X170586452Y-22803640D01*
X170583380Y-21789390D01*
X170424630Y-21630640D01*
X168775380Y-21630640D01*
X168521380Y-21630640D01*
X166872130Y-21630640D01*
X166713380Y-21789390D01*
X166710308Y-22803640D01*
X165004884Y-22803640D01*
X165071393Y-22737131D01*
X165283155Y-22420206D01*
X165429019Y-22068059D01*
X165503380Y-21694221D01*
X165503380Y-21313059D01*
X165429019Y-20939221D01*
X165283155Y-20587074D01*
X165071393Y-20270149D01*
X165004884Y-20203640D01*
X166710308Y-20203640D01*
X166713380Y-21217890D01*
X166872130Y-21376640D01*
X168521380Y-21376640D01*
X168521380Y-19727390D01*
X168775380Y-19727390D01*
X168775380Y-21376640D01*
X170424630Y-21376640D01*
X170583380Y-21217890D01*
X170584368Y-20891419D01*
X177135000Y-20891419D01*
X177135000Y-21272581D01*
X177209361Y-21646419D01*
X177355225Y-21998566D01*
X177566987Y-22315491D01*
X177836509Y-22585013D01*
X178153434Y-22796775D01*
X178505581Y-22942639D01*
X178879419Y-23017000D01*
X179260581Y-23017000D01*
X179634419Y-22942639D01*
X179986566Y-22796775D01*
X180303491Y-22585013D01*
X180506504Y-22382000D01*
X182211928Y-22382000D01*
X182224188Y-22506482D01*
X182260498Y-22626180D01*
X182319463Y-22736494D01*
X182398815Y-22833185D01*
X182495506Y-22912537D01*
X182605820Y-22971502D01*
X182725518Y-23007812D01*
X182850000Y-23020072D01*
X183864250Y-23017000D01*
X184023000Y-22858250D01*
X184023000Y-21209000D01*
X184277000Y-21209000D01*
X184277000Y-22858250D01*
X184435750Y-23017000D01*
X185450000Y-23020072D01*
X185574482Y-23007812D01*
X185694180Y-22971502D01*
X185804494Y-22912537D01*
X185901185Y-22833185D01*
X185980537Y-22736494D01*
X186039502Y-22626180D01*
X186075812Y-22506482D01*
X186088072Y-22382000D01*
X186085000Y-21367750D01*
X185926250Y-21209000D01*
X184277000Y-21209000D01*
X184023000Y-21209000D01*
X182373750Y-21209000D01*
X182215000Y-21367750D01*
X182211928Y-22382000D01*
X180506504Y-22382000D01*
X180573013Y-22315491D01*
X180784775Y-21998566D01*
X180930639Y-21646419D01*
X181005000Y-21272581D01*
X181005000Y-20891419D01*
X180930639Y-20517581D01*
X180784775Y-20165434D01*
X180573013Y-19848509D01*
X180506504Y-19782000D01*
X182211928Y-19782000D01*
X182215000Y-20796250D01*
X182373750Y-20955000D01*
X184023000Y-20955000D01*
X184023000Y-19305750D01*
X184277000Y-19305750D01*
X184277000Y-20955000D01*
X185926250Y-20955000D01*
X186085000Y-20796250D01*
X186088072Y-19782000D01*
X186075812Y-19657518D01*
X186039502Y-19537820D01*
X185980537Y-19427506D01*
X185901185Y-19330815D01*
X185804494Y-19251463D01*
X185694180Y-19192498D01*
X185574482Y-19156188D01*
X185450000Y-19143928D01*
X184435750Y-19147000D01*
X184277000Y-19305750D01*
X184023000Y-19305750D01*
X183864250Y-19147000D01*
X182850000Y-19143928D01*
X182725518Y-19156188D01*
X182605820Y-19192498D01*
X182495506Y-19251463D01*
X182398815Y-19330815D01*
X182319463Y-19427506D01*
X182260498Y-19537820D01*
X182224188Y-19657518D01*
X182211928Y-19782000D01*
X180506504Y-19782000D01*
X180303491Y-19578987D01*
X179986566Y-19367225D01*
X179634419Y-19221361D01*
X179260581Y-19147000D01*
X178879419Y-19147000D01*
X178505581Y-19221361D01*
X178153434Y-19367225D01*
X177836509Y-19578987D01*
X177566987Y-19848509D01*
X177355225Y-20165434D01*
X177209361Y-20517581D01*
X177135000Y-20891419D01*
X170584368Y-20891419D01*
X170586452Y-20203640D01*
X170574192Y-20079158D01*
X170537882Y-19959460D01*
X170478917Y-19849146D01*
X170399565Y-19752455D01*
X170302874Y-19673103D01*
X170192560Y-19614138D01*
X170072862Y-19577828D01*
X169948380Y-19565568D01*
X168934130Y-19568640D01*
X168775380Y-19727390D01*
X168521380Y-19727390D01*
X168362630Y-19568640D01*
X167348380Y-19565568D01*
X167223898Y-19577828D01*
X167104200Y-19614138D01*
X166993886Y-19673103D01*
X166897195Y-19752455D01*
X166817843Y-19849146D01*
X166758878Y-19959460D01*
X166722568Y-20079158D01*
X166710308Y-20203640D01*
X165004884Y-20203640D01*
X164801871Y-20000627D01*
X164484946Y-19788865D01*
X164132799Y-19643001D01*
X163758961Y-19568640D01*
X163377799Y-19568640D01*
X163003961Y-19643001D01*
X162651814Y-19788865D01*
X162334889Y-20000627D01*
X162065367Y-20270149D01*
X161853605Y-20587074D01*
X161707741Y-20939221D01*
X161633380Y-21313059D01*
X157126464Y-21313059D01*
X157129532Y-20300160D01*
X157117272Y-20175678D01*
X157080962Y-20055980D01*
X157021997Y-19945666D01*
X156942645Y-19848975D01*
X156845954Y-19769623D01*
X156735640Y-19710658D01*
X156615942Y-19674348D01*
X156491460Y-19662088D01*
X155477210Y-19665160D01*
X155318460Y-19823910D01*
X155064460Y-19823910D01*
X154905710Y-19665160D01*
X153891460Y-19662088D01*
X153766978Y-19674348D01*
X153647280Y-19710658D01*
X153536966Y-19769623D01*
X153440275Y-19848975D01*
X153360923Y-19945666D01*
X153301958Y-20055980D01*
X153265648Y-20175678D01*
X153253388Y-20300160D01*
X151547964Y-20300160D01*
X151344951Y-20097147D01*
X151028026Y-19885385D01*
X150675879Y-19739521D01*
X150302041Y-19665160D01*
X149920879Y-19665160D01*
X149547041Y-19739521D01*
X149194894Y-19885385D01*
X148877969Y-20097147D01*
X148608447Y-20366669D01*
X148396685Y-20683594D01*
X148250821Y-21035741D01*
X148176460Y-21409579D01*
X141101102Y-21409579D01*
X141173000Y-21048128D01*
X141173000Y-20607872D01*
X141087110Y-20176075D01*
X140918631Y-19769331D01*
X140674038Y-19403271D01*
X140362729Y-19091962D01*
X139996669Y-18847369D01*
X139589925Y-18678890D01*
X139158128Y-18593000D01*
X138717872Y-18593000D01*
X138286075Y-18678890D01*
X137879331Y-18847369D01*
X137513271Y-19091962D01*
X137201962Y-19403271D01*
X136957369Y-19769331D01*
X136788890Y-20176075D01*
X136703000Y-20607872D01*
X134660550Y-20607872D01*
X134660064Y-15659280D01*
X192815251Y-15595915D01*
X193088884Y-67854881D01*
X193088884Y-67854881D01*
G37*
X193088884Y-67854881D02*
X193085857Y-68603546D01*
X134674962Y-68628376D01*
X134665154Y-67598737D01*
X134664847Y-64463512D01*
X136659820Y-64463512D01*
X136659820Y-64903768D01*
X136745710Y-65335565D01*
X136914189Y-65742309D01*
X137158782Y-66108369D01*
X137470091Y-66419678D01*
X137836151Y-66664271D01*
X138242895Y-66832750D01*
X138674692Y-66918640D01*
X139114948Y-66918640D01*
X139546745Y-66832750D01*
X139953489Y-66664271D01*
X140319549Y-66419678D01*
X140630858Y-66108369D01*
X140875451Y-65742309D01*
X141043930Y-65335565D01*
X141129820Y-64903768D01*
X141129820Y-64463512D01*
X141043930Y-64031715D01*
X140875451Y-63624971D01*
X140630858Y-63258911D01*
X140319549Y-62947602D01*
X139953489Y-62703009D01*
X139546745Y-62534530D01*
X139114948Y-62448640D01*
X138674692Y-62448640D01*
X138242895Y-62534530D01*
X137836151Y-62703009D01*
X137470091Y-62947602D01*
X137158782Y-63258911D01*
X136914189Y-63624971D01*
X136745710Y-64031715D01*
X136659820Y-64463512D01*
X134664847Y-64463512D01*
X134662486Y-40369801D01*
X136484251Y-40369801D01*
X136496999Y-40499235D01*
X136497000Y-56383395D01*
X136484251Y-56512839D01*
X136535126Y-57029388D01*
X136685798Y-57526088D01*
X136685799Y-57526089D01*
X136930477Y-57983850D01*
X137259759Y-58385080D01*
X137360301Y-58467593D01*
X146186412Y-67293704D01*
X146268929Y-67394251D01*
X146670159Y-67723533D01*
X147127920Y-67968211D01*
X147624620Y-68118883D01*
X148011728Y-68157010D01*
X148011736Y-68157010D01*
X148141170Y-68169758D01*
X148270604Y-68157010D01*
X158391796Y-68157010D01*
X158521230Y-68169758D01*
X158650664Y-68157010D01*
X158650672Y-68157010D01*
X159037780Y-68118883D01*
X159534480Y-67968211D01*
X159992241Y-67723533D01*
X160393471Y-67394251D01*
X160475988Y-67293704D01*
X162915020Y-64854672D01*
X187269320Y-64854672D01*
X187269320Y-65294928D01*
X187355210Y-65726725D01*
X187523689Y-66133469D01*
X187768282Y-66499529D01*
X188079591Y-66810838D01*
X188445651Y-67055431D01*
X188852395Y-67223910D01*
X189284192Y-67309800D01*
X189724448Y-67309800D01*
X190156245Y-67223910D01*
X190562989Y-67055431D01*
X190929049Y-66810838D01*
X191240358Y-66499529D01*
X191484951Y-66133469D01*
X191653430Y-65726725D01*
X191739320Y-65294928D01*
X191739320Y-64854672D01*
X191653430Y-64422875D01*
X191484951Y-64016131D01*
X191240358Y-63650071D01*
X190929049Y-63338762D01*
X190562989Y-63094169D01*
X190156245Y-62925690D01*
X189724448Y-62839800D01*
X189284192Y-62839800D01*
X188852395Y-62925690D01*
X188445651Y-63094169D01*
X188079591Y-63338762D01*
X187768282Y-63650071D01*
X187523689Y-64016131D01*
X187355210Y-64422875D01*
X187269320Y-64854672D01*
X162915020Y-64854672D01*
X165157194Y-62612498D01*
X165257741Y-62529981D01*
X165587023Y-62128751D01*
X165831701Y-61670990D01*
X165982373Y-61174290D01*
X166033249Y-60657740D01*
X165982373Y-60141190D01*
X165831701Y-59644490D01*
X165587023Y-59186729D01*
X165272681Y-58803703D01*
X181726193Y-58803703D01*
X181806567Y-59101068D01*
X182005008Y-59525139D01*
X182282368Y-59902348D01*
X182627989Y-60218198D01*
X183028588Y-60460552D01*
X183468770Y-60620096D01*
X183931620Y-60690700D01*
X185681620Y-60690700D01*
X185681620Y-58432700D01*
X185935620Y-58432700D01*
X185935620Y-60690700D01*
X187685620Y-60690700D01*
X188148470Y-60620096D01*
X188588652Y-60460552D01*
X188989251Y-60218198D01*
X189334872Y-59902348D01*
X189612232Y-59525139D01*
X189810673Y-59101068D01*
X189891047Y-58803703D01*
X189781245Y-58432700D01*
X185935620Y-58432700D01*
X185681620Y-58432700D01*
X181835995Y-58432700D01*
X181726193Y-58803703D01*
X165272681Y-58803703D01*
X165257741Y-58785499D01*
X164856511Y-58456217D01*
X164409374Y-58217217D01*
X164425657Y-58200934D01*
X164538925Y-58031416D01*
X164616946Y-57843058D01*
X164623979Y-57807697D01*
X181726193Y-57807697D01*
X181835995Y-58178700D01*
X185681620Y-58178700D01*
X185681620Y-58158700D01*
X185935620Y-58158700D01*
X185935620Y-58178700D01*
X189781245Y-58178700D01*
X189891047Y-57807697D01*
X189810673Y-57510332D01*
X189612232Y-57086261D01*
X189334872Y-56709052D01*
X188989251Y-56393202D01*
X188588652Y-56150848D01*
X188148470Y-55991304D01*
X187685620Y-55920700D01*
X183931620Y-55920700D01*
X183468770Y-55991304D01*
X183028588Y-56150848D01*
X182627989Y-56393202D01*
X182282368Y-56709052D01*
X182005008Y-57086261D01*
X181806567Y-57510332D01*
X181726193Y-57807697D01*
X164623979Y-57807697D01*
X164656720Y-57643099D01*
X164656720Y-57439221D01*
X164616946Y-57239262D01*
X164538925Y-57050904D01*
X164425657Y-56881386D01*
X164281494Y-56737223D01*
X164111976Y-56623955D01*
X163923618Y-56545934D01*
X163723659Y-56506160D01*
X163519781Y-56506160D01*
X163319822Y-56545934D01*
X163131464Y-56623955D01*
X162961946Y-56737223D01*
X162817783Y-56881386D01*
X162704515Y-57050904D01*
X162626494Y-57239262D01*
X162586720Y-57439221D01*
X162586720Y-57643099D01*
X162626494Y-57843058D01*
X162704515Y-58031416D01*
X162748589Y-58097378D01*
X162372250Y-58211539D01*
X161914489Y-58456217D01*
X161513259Y-58785499D01*
X161430742Y-58886046D01*
X159283019Y-61033769D01*
X159164750Y-60915500D01*
X158515500Y-60915500D01*
X158515500Y-60935500D01*
X158261500Y-60935500D01*
X158261500Y-60915500D01*
X158241500Y-60915500D01*
X158241500Y-60661500D01*
X158261500Y-60661500D01*
X158261500Y-60641500D01*
X158515500Y-60641500D01*
X158515500Y-60661500D01*
X159164750Y-60661500D01*
X159323500Y-60502750D01*
X159326572Y-60238500D01*
X159314312Y-60114018D01*
X159278002Y-59994320D01*
X159219037Y-59884006D01*
X159139685Y-59787315D01*
X159042994Y-59707963D01*
X158961836Y-59664582D01*
X159034746Y-59604746D01*
X159150164Y-59464109D01*
X159235927Y-59303658D01*
X159288739Y-59129558D01*
X159306572Y-58948500D01*
X159306572Y-56628500D01*
X159288739Y-56447442D01*
X159235927Y-56273342D01*
X159150164Y-56112891D01*
X159034746Y-55972254D01*
X158918157Y-55876572D01*
X158938500Y-55876572D01*
X159092245Y-55861429D01*
X159240082Y-55816584D01*
X159376329Y-55743758D01*
X159401013Y-55723500D01*
X160168349Y-55723500D01*
X160198786Y-55753937D01*
X160368304Y-55867205D01*
X160556662Y-55945226D01*
X160756621Y-55985000D01*
X160960499Y-55985000D01*
X161160458Y-55945226D01*
X161348816Y-55867205D01*
X161518334Y-55753937D01*
X161662497Y-55609774D01*
X161775765Y-55440256D01*
X161853786Y-55251898D01*
X161893560Y-55051939D01*
X161893560Y-54848061D01*
X161853786Y-54648102D01*
X161775765Y-54459744D01*
X161662497Y-54290226D01*
X161518334Y-54146063D01*
X161348816Y-54032795D01*
X161160458Y-53954774D01*
X160960499Y-53915000D01*
X160756621Y-53915000D01*
X160556662Y-53954774D01*
X160368304Y-54032795D01*
X160198786Y-54146063D01*
X160191349Y-54153500D01*
X159723000Y-54153500D01*
X159723000Y-54042561D01*
X159683226Y-53842602D01*
X159605205Y-53654244D01*
X159491937Y-53484726D01*
X159347774Y-53340563D01*
X159178256Y-53227295D01*
X158989898Y-53149274D01*
X158789939Y-53109500D01*
X158586061Y-53109500D01*
X158386102Y-53149274D01*
X158197744Y-53227295D01*
X158028226Y-53340563D01*
X157884063Y-53484726D01*
X157770795Y-53654244D01*
X157692774Y-53842602D01*
X157653000Y-54042561D01*
X157653000Y-54172365D01*
X157581249Y-54231249D01*
X157483242Y-54350671D01*
X157450763Y-54411435D01*
X157344746Y-54282254D01*
X157204109Y-54166836D01*
X157043658Y-54081073D01*
X156869558Y-54028261D01*
X156688500Y-54010428D01*
X154368500Y-54010428D01*
X154187442Y-54028261D01*
X154013342Y-54081073D01*
X153852891Y-54166836D01*
X153712254Y-54282254D01*
X153615723Y-54399877D01*
X153601429Y-54254755D01*
X153556584Y-54106918D01*
X153483758Y-53970671D01*
X153385751Y-53851249D01*
X153266329Y-53753242D01*
X153130082Y-53680416D01*
X152982245Y-53635571D01*
X152828500Y-53620428D01*
X152528500Y-53620428D01*
X152374755Y-53635571D01*
X152226918Y-53680416D01*
X152090671Y-53753242D01*
X151971249Y-53851249D01*
X151873242Y-53970671D01*
X151800416Y-54106918D01*
X151755571Y-54254755D01*
X151740428Y-54408500D01*
X151740428Y-55208500D01*
X151755571Y-55362245D01*
X151800416Y-55510082D01*
X151873242Y-55646329D01*
X151971249Y-55765751D01*
X152090671Y-55863758D01*
X152117187Y-55877931D01*
X152002254Y-55972254D01*
X151886836Y-56112891D01*
X151801073Y-56273342D01*
X151748261Y-56447442D01*
X151730428Y-56628500D01*
X151730428Y-58811513D01*
X151726602Y-58812274D01*
X151538244Y-58890295D01*
X151368726Y-59003563D01*
X151224563Y-59147726D01*
X151111295Y-59317244D01*
X151033274Y-59505602D01*
X150993500Y-59705561D01*
X150993500Y-59909439D01*
X150994009Y-59912000D01*
X150812251Y-59912000D01*
X150794405Y-59878613D01*
X150683962Y-59744038D01*
X150549387Y-59633595D01*
X150395851Y-59551528D01*
X150229255Y-59500992D01*
X150056001Y-59483928D01*
X149155999Y-59483928D01*
X148982745Y-59500992D01*
X148816149Y-59551528D01*
X148662613Y-59633595D01*
X148528038Y-59744038D01*
X148417595Y-59878613D01*
X148335528Y-60032149D01*
X148284992Y-60198745D01*
X148267928Y-60371999D01*
X148267928Y-61022001D01*
X148284992Y-61195255D01*
X148335528Y-61361851D01*
X148417595Y-61515387D01*
X148528038Y-61649962D01*
X148534594Y-61655342D01*
X148454815Y-61720815D01*
X148375463Y-61817506D01*
X148316498Y-61927820D01*
X148306475Y-61960863D01*
X141766999Y-55421387D01*
X141766999Y-52838056D01*
X163580211Y-52838056D01*
X163580211Y-53041934D01*
X163619985Y-53241893D01*
X163698006Y-53430251D01*
X163811274Y-53599769D01*
X163955437Y-53743932D01*
X164124955Y-53857200D01*
X164313313Y-53935221D01*
X164513272Y-53974995D01*
X164717150Y-53974995D01*
X164917109Y-53935221D01*
X165105467Y-53857200D01*
X165274985Y-53743932D01*
X165419148Y-53599769D01*
X165532416Y-53430251D01*
X165610437Y-53241893D01*
X165650211Y-53041934D01*
X165650211Y-52838056D01*
X165610437Y-52638097D01*
X165532416Y-52449739D01*
X165419148Y-52280221D01*
X165274985Y-52136058D01*
X165105467Y-52022790D01*
X164917109Y-51944769D01*
X164717150Y-51904995D01*
X164513272Y-51904995D01*
X164313313Y-51944769D01*
X164124955Y-52022790D01*
X163955437Y-52136058D01*
X163811274Y-52280221D01*
X163698006Y-52449739D01*
X163619985Y-52638097D01*
X163580211Y-52838056D01*
X141766999Y-52838056D01*
X141766999Y-49682061D01*
X168129000Y-49682061D01*
X168129000Y-49885939D01*
X168168774Y-50085898D01*
X168246795Y-50274256D01*
X168360063Y-50443774D01*
X168504226Y-50587937D01*
X168673744Y-50701205D01*
X168862102Y-50779226D01*
X169062061Y-50819000D01*
X169265939Y-50819000D01*
X169359574Y-50800375D01*
X169528002Y-50968804D01*
X169528001Y-55950678D01*
X169524325Y-55988001D01*
X169528001Y-56025323D01*
X169528001Y-56025333D01*
X169538998Y-56136986D01*
X169580360Y-56273342D01*
X169582455Y-56280247D01*
X169653000Y-56412226D01*
X169653000Y-56489939D01*
X169692774Y-56689898D01*
X169770795Y-56878256D01*
X169884063Y-57047774D01*
X170028226Y-57191937D01*
X170197744Y-57305205D01*
X170386102Y-57383226D01*
X170586061Y-57423000D01*
X170789939Y-57423000D01*
X170989898Y-57383226D01*
X171178256Y-57305205D01*
X171347774Y-57191937D01*
X171491937Y-57047774D01*
X171605205Y-56878256D01*
X171683226Y-56689898D01*
X171723000Y-56489939D01*
X171723000Y-56286061D01*
X171683226Y-56086102D01*
X171605205Y-55897744D01*
X171491937Y-55728226D01*
X171347774Y-55584063D01*
X171178256Y-55470795D01*
X171048001Y-55416841D01*
X171048001Y-53225700D01*
X178836677Y-53225700D01*
X178864384Y-53507009D01*
X178946438Y-53777508D01*
X179079688Y-54026801D01*
X179259012Y-54245308D01*
X179477519Y-54424632D01*
X179726812Y-54557882D01*
X179997311Y-54639936D01*
X180208128Y-54660700D01*
X181249112Y-54660700D01*
X181459929Y-54639936D01*
X181730428Y-54557882D01*
X181979721Y-54424632D01*
X182198228Y-54245308D01*
X182377552Y-54026801D01*
X182510802Y-53777508D01*
X182592856Y-53507009D01*
X182620563Y-53225700D01*
X182592856Y-52944391D01*
X182510802Y-52673892D01*
X182377552Y-52424599D01*
X182198228Y-52206092D01*
X181979721Y-52026768D01*
X181851879Y-51958435D01*
X182081459Y-51808301D01*
X182283120Y-51610595D01*
X182442335Y-51377346D01*
X182552987Y-51117518D01*
X182570524Y-51034739D01*
X182448535Y-50812700D01*
X180855620Y-50812700D01*
X180855620Y-50832700D01*
X180601620Y-50832700D01*
X180601620Y-50812700D01*
X179008705Y-50812700D01*
X178886716Y-51034739D01*
X178904253Y-51117518D01*
X179014905Y-51377346D01*
X179174120Y-51610595D01*
X179375781Y-51808301D01*
X179605361Y-51958435D01*
X179477519Y-52026768D01*
X179259012Y-52206092D01*
X179079688Y-52424599D01*
X178946438Y-52673892D01*
X178864384Y-52944391D01*
X178836677Y-53225700D01*
X171048001Y-53225700D01*
X171048001Y-50691323D01*
X171051677Y-50654000D01*
X171048001Y-50616677D01*
X171048001Y-50616668D01*
X171037004Y-50505015D01*
X170993547Y-50361754D01*
X170980135Y-50336661D01*
X178886716Y-50336661D01*
X179008705Y-50558700D01*
X180601620Y-50558700D01*
X180601620Y-50538700D01*
X180855620Y-50538700D01*
X180855620Y-50558700D01*
X182448535Y-50558700D01*
X182570524Y-50336661D01*
X182552987Y-50253882D01*
X182442335Y-49994054D01*
X182283120Y-49760805D01*
X182081459Y-49563099D01*
X181845103Y-49408534D01*
X181583134Y-49303050D01*
X181305620Y-49250700D01*
X180151620Y-49250700D01*
X179874106Y-49303050D01*
X179612137Y-49408534D01*
X179375781Y-49563099D01*
X179174120Y-49760805D01*
X179014905Y-49994054D01*
X178904253Y-50253882D01*
X178886716Y-50336661D01*
X170980135Y-50336661D01*
X170922975Y-50229725D01*
X170828002Y-50114000D01*
X170799004Y-50090202D01*
X170136827Y-49428025D01*
X170081205Y-49293744D01*
X169967937Y-49124226D01*
X169823774Y-48980063D01*
X169654256Y-48866795D01*
X169465898Y-48788774D01*
X169265939Y-48749000D01*
X169062061Y-48749000D01*
X168862102Y-48788774D01*
X168673744Y-48866795D01*
X168504226Y-48980063D01*
X168360063Y-49124226D01*
X168246795Y-49293744D01*
X168168774Y-49482102D01*
X168129000Y-49682061D01*
X141766999Y-49682061D01*
X141766999Y-48643703D01*
X181726193Y-48643703D01*
X181806567Y-48941068D01*
X182005008Y-49365139D01*
X182282368Y-49742348D01*
X182627989Y-50058198D01*
X183028588Y-50300552D01*
X183468770Y-50460096D01*
X183931620Y-50530700D01*
X185681620Y-50530700D01*
X185681620Y-48272700D01*
X185935620Y-48272700D01*
X185935620Y-50530700D01*
X187685620Y-50530700D01*
X188148470Y-50460096D01*
X188588652Y-50300552D01*
X188989251Y-50058198D01*
X189334872Y-49742348D01*
X189612232Y-49365139D01*
X189810673Y-48941068D01*
X189891047Y-48643703D01*
X189781245Y-48272700D01*
X185935620Y-48272700D01*
X185681620Y-48272700D01*
X181835995Y-48272700D01*
X181726193Y-48643703D01*
X141766999Y-48643703D01*
X141766999Y-47647697D01*
X181726193Y-47647697D01*
X181835995Y-48018700D01*
X185681620Y-48018700D01*
X185681620Y-47998700D01*
X185935620Y-47998700D01*
X185935620Y-48018700D01*
X189781245Y-48018700D01*
X189891047Y-47647697D01*
X189810673Y-47350332D01*
X189612232Y-46926261D01*
X189334872Y-46549052D01*
X188989251Y-46233202D01*
X188588652Y-45990848D01*
X188148470Y-45831304D01*
X187685620Y-45760700D01*
X183931620Y-45760700D01*
X183468770Y-45831304D01*
X183028588Y-45990848D01*
X182627989Y-46233202D01*
X182282368Y-46549052D01*
X182005008Y-46926261D01*
X181806567Y-47350332D01*
X181726193Y-47647697D01*
X141766999Y-47647697D01*
X141766999Y-41461253D01*
X144286020Y-38942233D01*
X144386561Y-38859721D01*
X144715843Y-38458491D01*
X144960521Y-38000730D01*
X144989656Y-37904685D01*
X145111193Y-37504031D01*
X145116266Y-37452522D01*
X145149320Y-37116922D01*
X145149320Y-37116915D01*
X145162068Y-36987481D01*
X145149320Y-36858047D01*
X145149320Y-34907319D01*
X145111193Y-34520210D01*
X144960521Y-34023510D01*
X144715843Y-33565749D01*
X144386561Y-33164519D01*
X143985331Y-32835237D01*
X143527570Y-32590559D01*
X143030870Y-32439887D01*
X142514320Y-32389011D01*
X141997771Y-32439887D01*
X141501071Y-32590559D01*
X141145112Y-32780823D01*
X141038919Y-32759700D01*
X140835041Y-32759700D01*
X140635082Y-32799474D01*
X140446724Y-32877495D01*
X140277206Y-32990763D01*
X140133043Y-33134926D01*
X140019775Y-33304444D01*
X139941754Y-33492802D01*
X139901980Y-33692761D01*
X139901980Y-33896639D01*
X139941754Y-34096598D01*
X140001901Y-34241804D01*
X139917447Y-34520210D01*
X139879320Y-34907318D01*
X139879320Y-35896027D01*
X137360305Y-38415043D01*
X137259758Y-38497560D01*
X136930476Y-38898791D01*
X136685798Y-39356552D01*
X136535126Y-39853252D01*
X136496999Y-40240360D01*
X136496999Y-40240367D01*
X136484251Y-40369801D01*
X134662486Y-40369801D01*
X134661510Y-30397032D01*
X187485220Y-30397032D01*
X187485220Y-30837288D01*
X187571110Y-31269085D01*
X187739589Y-31675829D01*
X187984182Y-32041889D01*
X188295491Y-32353198D01*
X188661551Y-32597791D01*
X189068295Y-32766270D01*
X189500092Y-32852160D01*
X189940348Y-32852160D01*
X190372145Y-32766270D01*
X190778889Y-32597791D01*
X191144949Y-32353198D01*
X191456258Y-32041889D01*
X191700851Y-31675829D01*
X191869330Y-31269085D01*
X191955220Y-30837288D01*
X191955220Y-30397032D01*
X191869330Y-29965235D01*
X191700851Y-29558491D01*
X191456258Y-29192431D01*
X191144949Y-28881122D01*
X190778889Y-28636529D01*
X190372145Y-28468050D01*
X189940348Y-28382160D01*
X189500092Y-28382160D01*
X189068295Y-28468050D01*
X188661551Y-28636529D01*
X188295491Y-28881122D01*
X187984182Y-29192431D01*
X187739589Y-29558491D01*
X187571110Y-29965235D01*
X187485220Y-30397032D01*
X134661510Y-30397032D01*
X134660550Y-20607872D01*
X136703000Y-20607872D01*
X136703000Y-21048128D01*
X136788890Y-21479925D01*
X136957369Y-21886669D01*
X137201962Y-22252729D01*
X137513271Y-22564038D01*
X137879331Y-22808631D01*
X138286075Y-22977110D01*
X138717872Y-23063000D01*
X139158128Y-23063000D01*
X139589925Y-22977110D01*
X139996669Y-22808631D01*
X140362729Y-22564038D01*
X140674038Y-22252729D01*
X140918631Y-21886669D01*
X141087110Y-21479925D01*
X141101102Y-21409579D01*
X148176460Y-21409579D01*
X148176460Y-21790741D01*
X148250821Y-22164579D01*
X148396685Y-22516726D01*
X148608447Y-22833651D01*
X148877969Y-23103173D01*
X149194894Y-23314935D01*
X149547041Y-23460799D01*
X149920879Y-23535160D01*
X150302041Y-23535160D01*
X150675879Y-23460799D01*
X151028026Y-23314935D01*
X151344951Y-23103173D01*
X151547964Y-22900160D01*
X153253388Y-22900160D01*
X153265648Y-23024642D01*
X153301958Y-23144340D01*
X153360923Y-23254654D01*
X153440275Y-23351345D01*
X153536966Y-23430697D01*
X153647280Y-23489662D01*
X153766978Y-23525972D01*
X153891460Y-23538232D01*
X154905710Y-23535160D01*
X155064460Y-23376410D01*
X155064460Y-21727160D01*
X155318460Y-21727160D01*
X155318460Y-23376410D01*
X155477210Y-23535160D01*
X156491460Y-23538232D01*
X156615942Y-23525972D01*
X156735640Y-23489662D01*
X156845954Y-23430697D01*
X156942645Y-23351345D01*
X157021997Y-23254654D01*
X157080962Y-23144340D01*
X157117272Y-23024642D01*
X157129532Y-22900160D01*
X157126460Y-21885910D01*
X156967710Y-21727160D01*
X155318460Y-21727160D01*
X155064460Y-21727160D01*
X153415210Y-21727160D01*
X153256460Y-21885910D01*
X153253388Y-22900160D01*
X151547964Y-22900160D01*
X151614473Y-22833651D01*
X151826235Y-22516726D01*
X151972099Y-22164579D01*
X152046460Y-21790741D01*
X152046460Y-21409579D01*
X151972099Y-21035741D01*
X151826235Y-20683594D01*
X151614473Y-20366669D01*
X151547964Y-20300160D01*
X153253388Y-20300160D01*
X153256460Y-21314410D01*
X153415210Y-21473160D01*
X155064460Y-21473160D01*
X155064460Y-19823910D01*
X155318460Y-19823910D01*
X155318460Y-21473160D01*
X156967710Y-21473160D01*
X157126460Y-21314410D01*
X157126464Y-21313059D01*
X161633380Y-21313059D01*
X161633380Y-21694221D01*
X161707741Y-22068059D01*
X161853605Y-22420206D01*
X162065367Y-22737131D01*
X162334889Y-23006653D01*
X162651814Y-23218415D01*
X163003961Y-23364279D01*
X163377799Y-23438640D01*
X163758961Y-23438640D01*
X164132799Y-23364279D01*
X164484946Y-23218415D01*
X164801871Y-23006653D01*
X165004884Y-22803640D01*
X166710308Y-22803640D01*
X166722568Y-22928122D01*
X166758878Y-23047820D01*
X166817843Y-23158134D01*
X166897195Y-23254825D01*
X166993886Y-23334177D01*
X167104200Y-23393142D01*
X167223898Y-23429452D01*
X167348380Y-23441712D01*
X168362630Y-23438640D01*
X168521380Y-23279890D01*
X168521380Y-21630640D01*
X168775380Y-21630640D01*
X168775380Y-23279890D01*
X168934130Y-23438640D01*
X169948380Y-23441712D01*
X170072862Y-23429452D01*
X170192560Y-23393142D01*
X170302874Y-23334177D01*
X170399565Y-23254825D01*
X170478917Y-23158134D01*
X170537882Y-23047820D01*
X170574192Y-22928122D01*
X170586452Y-22803640D01*
X170583380Y-21789390D01*
X170424630Y-21630640D01*
X168775380Y-21630640D01*
X168521380Y-21630640D01*
X166872130Y-21630640D01*
X166713380Y-21789390D01*
X166710308Y-22803640D01*
X165004884Y-22803640D01*
X165071393Y-22737131D01*
X165283155Y-22420206D01*
X165429019Y-22068059D01*
X165503380Y-21694221D01*
X165503380Y-21313059D01*
X165429019Y-20939221D01*
X165283155Y-20587074D01*
X165071393Y-20270149D01*
X165004884Y-20203640D01*
X166710308Y-20203640D01*
X166713380Y-21217890D01*
X166872130Y-21376640D01*
X168521380Y-21376640D01*
X168521380Y-19727390D01*
X168775380Y-19727390D01*
X168775380Y-21376640D01*
X170424630Y-21376640D01*
X170583380Y-21217890D01*
X170584368Y-20891419D01*
X177135000Y-20891419D01*
X177135000Y-21272581D01*
X177209361Y-21646419D01*
X177355225Y-21998566D01*
X177566987Y-22315491D01*
X177836509Y-22585013D01*
X178153434Y-22796775D01*
X178505581Y-22942639D01*
X178879419Y-23017000D01*
X179260581Y-23017000D01*
X179634419Y-22942639D01*
X179986566Y-22796775D01*
X180303491Y-22585013D01*
X180506504Y-22382000D01*
X182211928Y-22382000D01*
X182224188Y-22506482D01*
X182260498Y-22626180D01*
X182319463Y-22736494D01*
X182398815Y-22833185D01*
X182495506Y-22912537D01*
X182605820Y-22971502D01*
X182725518Y-23007812D01*
X182850000Y-23020072D01*
X183864250Y-23017000D01*
X184023000Y-22858250D01*
X184023000Y-21209000D01*
X184277000Y-21209000D01*
X184277000Y-22858250D01*
X184435750Y-23017000D01*
X185450000Y-23020072D01*
X185574482Y-23007812D01*
X185694180Y-22971502D01*
X185804494Y-22912537D01*
X185901185Y-22833185D01*
X185980537Y-22736494D01*
X186039502Y-22626180D01*
X186075812Y-22506482D01*
X186088072Y-22382000D01*
X186085000Y-21367750D01*
X185926250Y-21209000D01*
X184277000Y-21209000D01*
X184023000Y-21209000D01*
X182373750Y-21209000D01*
X182215000Y-21367750D01*
X182211928Y-22382000D01*
X180506504Y-22382000D01*
X180573013Y-22315491D01*
X180784775Y-21998566D01*
X180930639Y-21646419D01*
X181005000Y-21272581D01*
X181005000Y-20891419D01*
X180930639Y-20517581D01*
X180784775Y-20165434D01*
X180573013Y-19848509D01*
X180506504Y-19782000D01*
X182211928Y-19782000D01*
X182215000Y-20796250D01*
X182373750Y-20955000D01*
X184023000Y-20955000D01*
X184023000Y-19305750D01*
X184277000Y-19305750D01*
X184277000Y-20955000D01*
X185926250Y-20955000D01*
X186085000Y-20796250D01*
X186088072Y-19782000D01*
X186075812Y-19657518D01*
X186039502Y-19537820D01*
X185980537Y-19427506D01*
X185901185Y-19330815D01*
X185804494Y-19251463D01*
X185694180Y-19192498D01*
X185574482Y-19156188D01*
X185450000Y-19143928D01*
X184435750Y-19147000D01*
X184277000Y-19305750D01*
X184023000Y-19305750D01*
X183864250Y-19147000D01*
X182850000Y-19143928D01*
X182725518Y-19156188D01*
X182605820Y-19192498D01*
X182495506Y-19251463D01*
X182398815Y-19330815D01*
X182319463Y-19427506D01*
X182260498Y-19537820D01*
X182224188Y-19657518D01*
X182211928Y-19782000D01*
X180506504Y-19782000D01*
X180303491Y-19578987D01*
X179986566Y-19367225D01*
X179634419Y-19221361D01*
X179260581Y-19147000D01*
X178879419Y-19147000D01*
X178505581Y-19221361D01*
X178153434Y-19367225D01*
X177836509Y-19578987D01*
X177566987Y-19848509D01*
X177355225Y-20165434D01*
X177209361Y-20517581D01*
X177135000Y-20891419D01*
X170584368Y-20891419D01*
X170586452Y-20203640D01*
X170574192Y-20079158D01*
X170537882Y-19959460D01*
X170478917Y-19849146D01*
X170399565Y-19752455D01*
X170302874Y-19673103D01*
X170192560Y-19614138D01*
X170072862Y-19577828D01*
X169948380Y-19565568D01*
X168934130Y-19568640D01*
X168775380Y-19727390D01*
X168521380Y-19727390D01*
X168362630Y-19568640D01*
X167348380Y-19565568D01*
X167223898Y-19577828D01*
X167104200Y-19614138D01*
X166993886Y-19673103D01*
X166897195Y-19752455D01*
X166817843Y-19849146D01*
X166758878Y-19959460D01*
X166722568Y-20079158D01*
X166710308Y-20203640D01*
X165004884Y-20203640D01*
X164801871Y-20000627D01*
X164484946Y-19788865D01*
X164132799Y-19643001D01*
X163758961Y-19568640D01*
X163377799Y-19568640D01*
X163003961Y-19643001D01*
X162651814Y-19788865D01*
X162334889Y-20000627D01*
X162065367Y-20270149D01*
X161853605Y-20587074D01*
X161707741Y-20939221D01*
X161633380Y-21313059D01*
X157126464Y-21313059D01*
X157129532Y-20300160D01*
X157117272Y-20175678D01*
X157080962Y-20055980D01*
X157021997Y-19945666D01*
X156942645Y-19848975D01*
X156845954Y-19769623D01*
X156735640Y-19710658D01*
X156615942Y-19674348D01*
X156491460Y-19662088D01*
X155477210Y-19665160D01*
X155318460Y-19823910D01*
X155064460Y-19823910D01*
X154905710Y-19665160D01*
X153891460Y-19662088D01*
X153766978Y-19674348D01*
X153647280Y-19710658D01*
X153536966Y-19769623D01*
X153440275Y-19848975D01*
X153360923Y-19945666D01*
X153301958Y-20055980D01*
X153265648Y-20175678D01*
X153253388Y-20300160D01*
X151547964Y-20300160D01*
X151344951Y-20097147D01*
X151028026Y-19885385D01*
X150675879Y-19739521D01*
X150302041Y-19665160D01*
X149920879Y-19665160D01*
X149547041Y-19739521D01*
X149194894Y-19885385D01*
X148877969Y-20097147D01*
X148608447Y-20366669D01*
X148396685Y-20683594D01*
X148250821Y-21035741D01*
X148176460Y-21409579D01*
X141101102Y-21409579D01*
X141173000Y-21048128D01*
X141173000Y-20607872D01*
X141087110Y-20176075D01*
X140918631Y-19769331D01*
X140674038Y-19403271D01*
X140362729Y-19091962D01*
X139996669Y-18847369D01*
X139589925Y-18678890D01*
X139158128Y-18593000D01*
X138717872Y-18593000D01*
X138286075Y-18678890D01*
X137879331Y-18847369D01*
X137513271Y-19091962D01*
X137201962Y-19403271D01*
X136957369Y-19769331D01*
X136788890Y-20176075D01*
X136703000Y-20607872D01*
X134660550Y-20607872D01*
X134660064Y-15659280D01*
X192815251Y-15595915D01*
X193088884Y-67854881D01*
G36*
X157450428Y-61338500D02*
G01*
X157462688Y-61462982D01*
X157498998Y-61582680D01*
X157557963Y-61692994D01*
X157637315Y-61789685D01*
X157734006Y-61869037D01*
X157844320Y-61928002D01*
X157964018Y-61964312D01*
X158088500Y-61976572D01*
X158102750Y-61973500D01*
X158261498Y-61814752D01*
X158261498Y-61973500D01*
X158343288Y-61973500D01*
X157429778Y-62887010D01*
X150795260Y-62887010D01*
X150782250Y-62874000D01*
X149733000Y-62874000D01*
X149733000Y-62887010D01*
X149479000Y-62887010D01*
X149479000Y-62874000D01*
X149459000Y-62874000D01*
X149459000Y-62620000D01*
X149479000Y-62620000D01*
X149479000Y-62600000D01*
X149733000Y-62600000D01*
X149733000Y-62620000D01*
X150782250Y-62620000D01*
X150941000Y-62461250D01*
X150944072Y-62172000D01*
X150931812Y-62047518D01*
X150895502Y-61927820D01*
X150836537Y-61817506D01*
X150757185Y-61720815D01*
X150677406Y-61655342D01*
X150683962Y-61649962D01*
X150794405Y-61515387D01*
X150812251Y-61482000D01*
X150945900Y-61482000D01*
X150945900Y-61519139D01*
X150985674Y-61719098D01*
X151063695Y-61907456D01*
X151176963Y-62076974D01*
X151321126Y-62221137D01*
X151490644Y-62334405D01*
X151679002Y-62412426D01*
X151878961Y-62452200D01*
X152082839Y-62452200D01*
X152282798Y-62412426D01*
X152471156Y-62334405D01*
X152640674Y-62221137D01*
X152784837Y-62076974D01*
X152898105Y-61907456D01*
X152976126Y-61719098D01*
X153005994Y-61568939D01*
X153082245Y-61561429D01*
X153230082Y-61516584D01*
X153366329Y-61443758D01*
X153485751Y-61345751D01*
X153583758Y-61226329D01*
X153605819Y-61185055D01*
X153712254Y-61314746D01*
X153852891Y-61430164D01*
X154013342Y-61515927D01*
X154187442Y-61568739D01*
X154368500Y-61586572D01*
X156688500Y-61586572D01*
X156869558Y-61568739D01*
X157043658Y-61515927D01*
X157204109Y-61430164D01*
X157344746Y-61314746D01*
X157452227Y-61183781D01*
X157450428Y-61338500D01*
X157450428Y-61338500D01*
G37*
X157450428Y-61338500D02*
X157462688Y-61462982D01*
X157498998Y-61582680D01*
X157557963Y-61692994D01*
X157637315Y-61789685D01*
X157734006Y-61869037D01*
X157844320Y-61928002D01*
X157964018Y-61964312D01*
X158088500Y-61976572D01*
X158102750Y-61973500D01*
X158261498Y-61814752D01*
X158261498Y-61973500D01*
X158343288Y-61973500D01*
X157429778Y-62887010D01*
X150795260Y-62887010D01*
X150782250Y-62874000D01*
X149733000Y-62874000D01*
X149733000Y-62887010D01*
X149479000Y-62887010D01*
X149479000Y-62874000D01*
X149459000Y-62874000D01*
X149459000Y-62620000D01*
X149479000Y-62620000D01*
X149479000Y-62600000D01*
X149733000Y-62600000D01*
X149733000Y-62620000D01*
X150782250Y-62620000D01*
X150941000Y-62461250D01*
X150944072Y-62172000D01*
X150931812Y-62047518D01*
X150895502Y-61927820D01*
X150836537Y-61817506D01*
X150757185Y-61720815D01*
X150677406Y-61655342D01*
X150683962Y-61649962D01*
X150794405Y-61515387D01*
X150812251Y-61482000D01*
X150945900Y-61482000D01*
X150945900Y-61519139D01*
X150985674Y-61719098D01*
X151063695Y-61907456D01*
X151176963Y-62076974D01*
X151321126Y-62221137D01*
X151490644Y-62334405D01*
X151679002Y-62412426D01*
X151878961Y-62452200D01*
X152082839Y-62452200D01*
X152282798Y-62412426D01*
X152471156Y-62334405D01*
X152640674Y-62221137D01*
X152784837Y-62076974D01*
X152898105Y-61907456D01*
X152976126Y-61719098D01*
X153005994Y-61568939D01*
X153082245Y-61561429D01*
X153230082Y-61516584D01*
X153366329Y-61443758D01*
X153485751Y-61345751D01*
X153583758Y-61226329D01*
X153605819Y-61185055D01*
X153712254Y-61314746D01*
X153852891Y-61430164D01*
X154013342Y-61515927D01*
X154187442Y-61568739D01*
X154368500Y-61586572D01*
X156688500Y-61586572D01*
X156869558Y-61568739D01*
X157043658Y-61515927D01*
X157204109Y-61430164D01*
X157344746Y-61314746D01*
X157452227Y-61183781D01*
X157450428Y-61338500D01*
M02*
