M48
; DRILL file {KiCad (5.1.0)-1} date 5/22/2020 8:02:53 AM
; FORMAT={-:-/ absolute / metric / decimal}
; #@! TF.CreationDate,2020-05-22T08:02:53-04:00
; #@! TF.GenerationSoftware,Kicad,Pcbnew,(5.1.0)-1
FMAT,2
METRIC
T1C0.400
T2C0.890
T3C1.300
T4C2.010
T5C3.200
%
G90
G05
T1
X140.896Y-36.871
X140.937Y-33.795
X140.975Y-35.372
X141.732Y-44.704
X142.514Y-36.987
X142.789Y-33.795
X142.789Y-35.41
X143.307Y-55.88
X144.78Y-41.402
X150.114Y-41.402
X151.981Y-61.417
X152.028Y-59.807
X152.871Y-34.253
X153.111Y-46.279
X158.688Y-54.145
X160.859Y-54.95
X161.564Y-57.597
X163.385Y-60.658
X163.622Y-57.541
X164.615Y-52.94
X164.909Y-64.168
X167.513Y-41.91
X169.164Y-49.784
X170.688Y-56.388
X171.46Y-46.34
X171.958Y-42.926
X174.752Y-42.672
X177.0Y-55.25
X180.848Y-42.672
X183.896Y-36.576
T2
X180.729Y-50.686
X180.729Y-53.226
T3
X179.07Y-21.082
X184.15Y-21.082
X150.111Y-21.6
X155.191Y-21.6
X163.568Y-21.504
X168.648Y-21.504
T4
X185.809Y-48.146
X185.809Y-58.306
T5
X138.938Y-20.828
X138.895Y-64.684
X189.504Y-65.075
X189.72Y-30.617
T0
M30
